<svg width="1056" height="1055" viewBox="0 0 1056 1055" fill="none" xmlns="http://www.w3.org/2000/svg">
<path d="M539.918 1049.61C536.223 1049.69 532.52 1049.73 528.807 1049.74L528.807 1049.24C526.952 1049.24 525.096 1049.23 523.237 1049.22C521.378 1049.2 519.521 1049.17 517.667 1049.14L517.658 1049.64C513.946 1049.56 510.244 1049.45 506.552 1049.3L506.572 1048.8C502.88 1048.65 499.199 1048.47 495.527 1048.24L495.497 1048.74C491.786 1048.51 488.085 1048.25 484.396 1047.94L484.437 1047.45C480.751 1047.14 477.076 1046.8 473.412 1046.42L473.361 1046.92C469.67 1046.53 465.991 1046.11 462.323 1045.66L462.385 1045.16C458.71 1044.7 455.047 1044.2 451.396 1043.67L451.323 1044.16C447.66 1043.62 444.009 1043.05 440.371 1042.44L440.454 1041.94C436.797 1041.33 433.154 1040.68 429.524 1039.98L429.431 1040.48C425.797 1039.78 422.177 1039.06 418.571 1038.29L418.675 1037.8C415.047 1037.03 411.433 1036.22 407.834 1035.38L407.719 1035.86C404.115 1035.02 400.525 1034.13 396.949 1033.21L397.074 1032.73C393.488 1031.81 389.917 1030.85 386.362 1029.85L386.227 1030.33C382.659 1029.33 379.106 1028.29 375.57 1027.22L375.715 1026.74C372.176 1025.67 368.654 1024.56 365.147 1023.41L364.992 1023.88C361.468 1022.73 357.96 1021.54 354.47 1020.32L354.635 1019.85C351.148 1018.62 347.678 1017.36 344.225 1016.07L344.049 1016.54C340.577 1015.24 337.122 1013.9 333.686 1012.53L333.871 1012.06C330.437 1010.69 327.021 1009.28 323.624 1007.84L323.429 1008.3C320.018 1006.85 316.627 1005.37 313.255 1003.85L313.46 1003.4C310.086 1001.88 306.731 1000.33 303.396 998.74L303.181 999.191C299.838 997.601 296.515 995.976 293.212 994.318L293.437 993.871C290.129 992.21 286.842 990.515 283.576 988.787L283.342 989.229C280.072 987.499 276.822 985.735 273.594 983.938L273.837 983.501C270.603 981.701 267.39 979.868 264.199 978.001L263.946 978.433C260.752 976.565 257.579 974.664 254.429 972.731L254.69 972.305C251.537 970.37 248.406 968.403 245.297 966.403L245.027 966.824C241.914 964.822 238.823 962.787 235.756 960.721L236.036 960.307C232.969 958.241 229.925 956.143 226.904 954.015L226.616 954.423C223.59 952.291 220.588 950.127 217.61 947.933L217.907 947.53C214.931 945.337 211.979 943.113 209.052 940.859L208.747 941.255C205.814 938.997 202.905 936.707 200.022 934.389L200.336 933.999C197.455 931.682 194.6 929.336 191.771 926.96L191.449 927.343C188.614 924.963 185.805 922.553 183.022 920.114L183.352 919.738C180.571 917.302 177.817 914.836 175.09 912.343L174.752 912.712C172.021 910.215 169.317 907.689 166.64 905.135L166.985 904.773C164.31 902.222 161.662 899.642 159.041 897.035L158.689 897.39C156.066 894.78 153.47 892.143 150.903 889.478L151.263 889.131C148.698 886.47 146.162 883.781 143.653 881.065L143.286 881.404C140.776 878.686 138.294 875.942 135.841 873.171L136.215 872.84C133.765 870.072 131.344 867.279 128.953 864.46L128.572 864.783C126.178 861.962 123.814 859.114 121.48 856.242L121.868 855.927C119.537 853.059 117.237 850.166 114.967 847.249L114.572 847.556C112.3 844.636 110.059 841.691 107.848 838.723L108.249 838.424C106.042 835.46 103.866 832.473 101.721 829.462L101.314 829.752C99.1674 826.739 97.0525 823.702 94.9693 820.643L95.3827 820.361C93.303 817.307 91.2549 814.229 89.239 811.129L88.8198 811.402C86.8039 808.301 84.8201 805.179 82.8687 802.034L83.2936 801.77C81.3449 798.629 79.4286 795.466 77.5452 792.282L77.1148 792.536C75.2332 789.355 73.3844 786.152 71.569 782.928L72.0047 782.682C70.1909 779.461 68.4104 776.219 66.6637 772.956L66.2229 773.192C64.4788 769.934 62.7683 766.656 61.0919 763.357L61.5376 763.131C59.8633 759.837 58.223 756.522 56.6172 753.189L56.1667 753.405C54.5626 750.075 52.9929 746.726 51.4579 743.357L51.9129 743.15C50.3815 739.789 48.8848 736.409 47.4232 733.01L46.9639 733.208C45.5028 729.811 44.0767 726.395 42.6862 722.961L43.1496 722.773C41.7643 719.353 40.4143 715.914 39.0999 712.457L38.6326 712.635C37.3171 709.176 36.0374 705.699 34.794 702.205L35.265 702.038C34.0286 698.564 32.828 695.073 31.6637 691.566L31.1891 691.723C30.0237 688.213 28.8945 684.686 27.8021 681.143L28.2799 680.995C27.1929 677.47 26.1423 673.929 25.1286 670.372L24.6478 670.509C23.6348 666.955 22.6585 663.385 21.7194 659.801L22.2031 659.674C21.2673 656.102 20.3685 652.515 19.507 648.914L19.0207 649.03C18.1619 645.44 17.3403 641.835 16.5561 638.217L17.0448 638.111C16.2617 634.497 15.5162 630.87 14.8086 627.229L14.3178 627.324C13.6145 623.705 12.9487 620.073 12.3207 616.429L12.8134 616.344C12.186 612.702 11.5964 609.048 11.0451 605.382L10.5506 605.456C10.002 601.808 9.49122 598.147 9.01862 594.474L9.51446 594.411C9.04358 590.751 8.61076 587.08 8.21626 583.397L7.71906 583.45C7.32534 579.775 6.96994 576.089 6.65309 572.392L7.1513 572.349C6.83677 568.68 6.56029 564.999 6.32237 561.308L5.8234 561.341C5.58526 557.646 5.38567 553.942 5.22487 550.227L5.72436 550.206C5.56539 546.531 5.44448 542.846 5.36211 539.153L4.86223 539.164C4.77986 535.47 4.73578 531.766 4.73073 528.054L5.23076 528.053C5.22822 526.198 5.23534 524.342 5.25225 522.483C5.26916 520.624 5.29581 518.768 5.33208 516.914L4.83215 516.904C4.90473 513.192 5.01617 509.49 5.16572 505.798L5.66532 505.818C5.81487 502.127 6.00278 498.445 6.22856 494.774L5.72955 494.743C5.9579 491.032 6.22484 487.332 6.53014 483.642L7.02844 483.684C7.33346 479.998 7.67684 476.323 8.05795 472.66L7.56072 472.608C7.94477 468.917 8.36717 465.238 8.82767 461.571L9.3237 461.633C9.78513 457.958 10.2848 454.295 10.8221 450.645L10.3274 450.572C10.8668 446.909 11.4442 443.258 12.0591 439.62L12.552 439.703C13.17 436.047 13.8259 432.405 14.5194 428.775L14.0283 428.682C14.7225 425.049 15.4543 421.43 16.2233 417.824L16.7124 417.928C17.486 414.301 18.2975 410.688 19.146 407.089L18.6594 406.974C19.5092 403.37 20.3963 399.781 21.3203 396.207L21.8044 396.332C22.7312 392.747 23.6951 389.177 24.6958 385.623L24.2144 385.487C25.2186 381.921 26.2597 378.369 27.3372 374.834L27.8154 374.98C28.8937 371.442 30.0085 367.921 31.1594 364.416L30.6844 364.26C31.841 360.737 33.0342 357.231 34.2633 353.742L34.7349 353.909C35.9629 350.423 37.2268 346.955 38.5261 343.504L38.0582 343.328C39.3651 339.857 40.7078 336.404 42.086 332.969L42.55 333.156C43.927 329.724 45.3393 326.31 46.7866 322.915L46.3267 322.719C47.7794 319.311 49.2674 315.922 50.79 312.551L51.2457 312.757C52.7689 309.386 54.3268 306.034 55.9192 302.701L55.468 302.486C57.0639 299.146 58.6943 295.825 60.3587 292.525L60.8052 292.75C62.4714 289.446 64.1717 286.162 65.9057 282.899L65.4642 282.664C67.2003 279.397 68.9702 276.15 70.7732 272.924L71.2097 273.168C73.0155 269.938 74.8546 266.729 76.7266 263.541L76.2955 263.288C78.1693 260.097 80.0761 256.928 82.0153 253.781L82.441 254.044C84.3819 250.894 86.3554 247.766 88.3609 244.662L87.941 244.39C89.9492 241.281 91.9895 238.195 94.0614 235.132L94.4756 235.412C96.5476 232.349 98.6513 229.309 100.786 226.293L100.378 226.004C102.517 222.983 104.686 219.986 106.887 217.012L107.289 217.31C109.488 214.338 111.718 211.391 113.979 208.468L113.583 208.162C115.848 205.234 118.143 202.33 120.467 199.452L120.856 199.766C123.179 196.891 125.532 194.04 127.914 191.216L127.532 190.893C129.918 188.064 132.333 185.26 134.778 182.482L135.153 182.813C137.595 180.038 140.067 177.289 142.567 174.566L142.198 174.228C144.701 171.503 147.232 168.804 149.792 166.132L150.153 166.478C152.71 163.808 155.296 161.166 157.908 158.551L157.555 158.198C160.17 155.58 162.813 152.991 165.483 150.429L165.829 150.79C168.496 148.231 171.191 145.7 173.912 143.198L173.573 142.83C176.297 140.325 179.047 137.849 181.823 135.402L182.153 135.777C184.926 133.333 187.724 130.918 190.548 128.533L190.226 128.151C193.053 125.763 195.905 123.405 198.783 121.077L199.097 121.465C201.969 119.141 204.867 116.847 207.789 114.583L207.483 114.188C210.407 111.922 213.357 109.687 216.331 107.482L216.628 107.883C219.596 105.683 222.588 103.513 225.604 101.374L225.314 100.966C228.332 98.8264 231.373 96.7176 234.437 94.6405L234.717 95.0544C237.776 92.981 240.857 90.9392 243.962 88.9294L243.69 88.5097C246.794 86.5 249.921 84.5223 253.07 82.577L253.332 83.0024C256.477 81.0599 259.643 79.1497 262.831 77.2724L262.578 76.8416C265.763 74.9661 268.969 73.1233 272.197 71.3138L272.442 71.75C275.666 69.9422 278.912 68.1675 282.178 66.4266L281.943 65.9853C285.204 64.2474 288.485 62.5429 291.786 60.8724L292.012 61.3185C295.309 59.65 298.627 58.0153 301.964 56.4151L301.747 55.9643C305.08 54.366 308.432 52.802 311.803 51.2727L312.01 51.7281C315.373 50.2022 318.756 48.7109 322.157 47.2547L321.96 46.795C325.359 45.3395 328.777 43.9188 332.213 42.5336L332.4 42.9973C335.823 41.6172 339.264 40.2723 342.722 38.963L342.545 38.4954C346.006 37.1851 349.485 35.9104 352.98 34.6718L353.147 35.1431C356.623 33.9115 360.115 32.7157 363.624 31.5559L363.467 31.0812C366.98 29.9203 370.508 28.7957 374.053 27.7076L374.2 28.1856C377.726 27.1031 381.268 26.0569 384.826 25.0474L384.69 24.5664C388.245 23.5575 391.816 22.5852 395.402 21.65L395.528 22.1339C399.101 21.202 402.688 20.307 406.29 19.4493L406.175 18.9629C409.766 18.1077 413.372 17.2895 416.991 16.5087L417.096 16.9975C420.711 16.2179 424.339 15.4756 427.98 14.7711L427.885 14.2802C431.505 13.5799 435.137 12.917 438.783 12.2917L438.867 12.7845C442.509 12.1599 446.164 11.5729 449.831 11.024L449.757 10.5295C453.405 9.98338 457.066 9.47491 460.739 9.00451L460.802 9.50046C464.462 9.03168 468.134 8.60075 471.817 8.20807L471.764 7.71089C475.439 7.31906 479.125 6.96528 482.822 6.64995L482.865 7.14814C486.535 6.83513 490.215 6.56004 493.906 6.32326L493.874 5.82428C497.569 5.58728 501.274 5.38863 504.988 5.22873L505.01 5.72826C508.684 5.57008 512.369 5.44984 516.062 5.36793L516.051 4.86805C519.746 4.78613 523.449 4.74252 527.162 4.73759L527.162 5.23759C529.017 5.23512 530.873 5.24232 532.732 5.25923C534.591 5.27614 536.448 5.30271 538.302 5.3389L538.311 4.839C542.023 4.91146 545.725 5.02243 549.417 5.17154L549.397 5.67113C553.089 5.82021 556.77 6.00745 560.442 6.23245L560.472 5.73338C564.183 5.96083 567.884 6.22684 571.573 6.531L571.532 7.02931C575.218 7.33319 578.893 7.67518 582.557 8.0549L582.609 7.55757C586.299 7.94009 589.978 8.36087 593.646 8.81948L593.584 9.31561C597.259 9.77522 600.922 10.2729 604.573 10.8081L604.646 10.3134C608.309 10.8506 611.96 11.4255 615.598 12.038L615.515 12.531C619.172 13.1465 622.815 13.7999 626.445 14.4907L626.538 13.9995C630.172 14.6909 633.792 15.4199 637.398 16.1858L637.294 16.6749C640.922 17.4455 644.536 18.2537 648.135 19.0989L648.25 18.6122C651.854 19.4586 655.445 20.3423 659.02 21.2627L658.895 21.7469C662.481 22.67 666.052 23.6301 669.607 24.6268L669.742 24.1453C673.31 25.1456 676.863 26.1827 680.399 27.2561L680.254 27.7345C683.793 28.8086 687.315 29.9191 690.822 31.0655L690.977 30.5903C694.501 31.7426 698.009 32.9313 701.499 34.1558L701.334 34.6276C704.821 35.851 708.291 37.1102 711.744 38.4048L711.92 37.9366C715.392 39.2386 718.847 40.5763 722.283 41.9494L722.098 42.4137C725.532 43.7857 728.948 45.193 732.345 46.6351L732.541 46.1749C735.951 47.6224 739.342 49.1049 742.714 50.6221L742.509 51.0781C745.883 52.596 749.238 54.1486 752.573 55.7354L752.788 55.2839C756.131 56.8742 759.454 58.4989 762.757 60.1575L762.532 60.6043C765.84 62.265 769.127 63.9597 772.393 65.688L772.627 65.246C775.897 66.9763 779.147 68.7402 782.375 70.5372L782.132 70.9741C785.366 72.7742 788.579 74.6075 791.77 76.4737L792.023 76.0421C795.217 77.91 798.39 79.8108 801.54 81.7439L801.279 82.1701C804.432 84.105 807.563 86.0724 810.672 88.0718L810.942 87.6513C814.055 89.6535 817.146 91.6878 820.213 93.7536L819.933 94.1683C823.001 96.2343 826.045 98.3318 829.065 100.46L829.353 100.052C832.379 102.184 835.381 104.348 838.359 106.542L838.062 106.945C841.038 109.138 843.99 111.362 846.917 113.616L847.222 113.22C850.155 115.479 853.064 117.768 855.947 120.086L855.633 120.476C858.514 122.793 861.369 125.139 864.198 127.515L864.52 127.132C867.355 129.512 870.164 131.922 872.947 134.361L872.617 134.737C875.398 137.173 878.152 139.639 880.879 142.133L881.217 141.764C883.948 144.261 886.652 146.786 889.329 149.34L888.984 149.702C891.659 152.253 894.307 154.833 896.928 157.44L897.28 157.086C899.903 159.695 902.499 162.332 905.066 164.997L904.706 165.344C907.271 168.006 909.807 170.695 912.316 173.41L912.683 173.071C915.193 175.789 917.675 178.533 920.128 181.304L919.754 181.636C922.204 184.403 924.625 187.196 927.016 190.015L927.397 189.692C929.791 192.513 932.155 195.361 934.489 198.233L934.101 198.549C936.432 201.416 938.732 204.309 941.002 207.226L941.397 206.919C943.669 209.839 945.91 212.784 948.121 215.753L947.72 216.051C949.927 219.015 952.103 222.002 954.248 225.013L954.655 224.723C956.802 227.736 958.917 230.773 961 233.832L960.586 234.114C962.666 237.168 964.714 240.246 966.73 243.346L967.149 243.074C969.165 246.174 971.149 249.297 973.1 252.441L972.675 252.705C974.624 255.846 976.54 259.009 978.424 262.193L978.854 261.939C980.736 265.12 982.585 268.323 984.4 271.548L983.964 271.793C985.778 275.014 987.559 278.256 989.305 281.519L989.746 281.283C991.49 284.541 993.201 287.819 994.877 291.118L994.431 291.344C996.106 294.639 997.746 297.953 999.352 301.287L999.802 301.07C1001.41 304.4 1002.98 307.75 1004.51 311.118L1004.06 311.325C1005.59 314.686 1007.08 318.066 1008.55 321.465L1009.01 321.267C1010.47 324.664 1011.89 328.08 1013.28 331.514L1012.82 331.702C1014.2 335.123 1015.55 338.561 1016.87 342.018L1017.34 341.84C1018.65 345.299 1019.93 348.776 1021.18 352.27L1020.7 352.438C1021.94 355.911 1023.14 359.402 1024.31 362.909L1024.78 362.752C1025.95 366.263 1027.07 369.789 1028.17 373.332L1027.69 373.48C1028.78 377.005 1029.83 380.546 1030.84 384.103L1031.32 383.966C1032.33 387.52 1033.31 391.09 1034.25 394.674L1033.77 394.801C1034.7 398.373 1035.6 401.96 1036.46 405.561L1036.95 405.445C1037.81 409.035 1038.63 412.64 1039.41 416.259L1038.92 416.364C1039.71 419.978 1040.45 423.606 1041.16 427.246L1041.65 427.151C1042.35 430.77 1043.02 434.402 1043.65 438.047L1043.16 438.132C1043.78 441.773 1044.37 445.427 1044.92 449.093L1045.42 449.019C1045.97 452.667 1046.48 456.328 1046.95 460.001L1046.45 460.065C1046.93 463.724 1047.36 467.395 1047.75 471.078L1048.25 471.025C1048.64 474.7 1049 478.386 1049.32 482.083L1048.82 482.126C1049.13 485.796 1049.41 489.476 1049.65 493.167L1050.15 493.135C1050.38 496.829 1050.58 500.534 1050.74 504.248L1050.24 504.27C1050.4 507.944 1050.52 511.629 1050.61 515.323L1051.11 515.311C1051.19 519.006 1051.23 522.709 1051.24 526.422L1050.74 526.422C1050.74 528.277 1050.73 530.133 1050.72 531.992C1050.7 533.851 1050.67 535.707 1050.64 537.561L1051.14 537.571C1051.06 541.283 1050.95 544.985 1050.8 548.677L1050.3 548.657C1050.15 552.349 1049.97 556.03 1049.74 559.701L1050.24 559.732C1050.01 563.443 1049.74 567.144 1049.44 570.833L1048.94 570.792C1048.64 574.477 1048.29 578.152 1047.91 581.816L1048.41 581.867C1048.02 585.558 1047.6 589.237 1047.14 592.904L1046.65 592.842C1046.18 596.517 1045.68 600.18 1045.15 603.83L1045.64 603.903C1045.1 607.566 1044.52 611.217 1043.91 614.855L1043.42 614.772C1042.8 618.428 1042.14 622.07 1041.45 625.7L1041.94 625.794C1041.25 629.426 1040.51 633.046 1039.75 636.651L1039.26 636.547C1038.48 640.174 1037.67 643.787 1036.82 647.386L1037.31 647.501C1036.46 651.105 1035.57 654.694 1034.65 658.268L1034.16 658.143C1033.24 661.728 1032.27 665.298 1031.27 668.852L1031.75 668.988C1030.75 672.555 1029.71 676.106 1028.63 679.641L1028.15 679.495C1027.08 683.033 1025.96 686.554 1024.81 690.059L1025.28 690.215C1024.13 693.738 1022.93 697.244 1021.71 700.733L1021.23 700.567C1020.01 704.052 1018.74 707.52 1017.44 710.971L1017.91 711.147C1016.6 714.618 1015.26 718.071 1013.88 721.506L1013.42 721.32C1012.04 724.751 1010.63 728.165 1009.18 731.56L1009.64 731.756C1008.19 735.164 1006.7 738.554 1005.18 741.924L1004.72 741.718C1003.2 745.089 1001.64 748.441 1000.05 751.774L1000.5 751.989C998.905 755.33 997.275 758.65 995.61 761.95L995.164 761.725C993.498 765.029 991.797 768.313 990.063 771.576L990.505 771.811C988.769 775.079 986.999 778.325 985.196 781.551L984.759 781.307C982.954 784.537 981.114 787.747 979.242 790.934L979.674 791.187C977.8 794.378 975.893 797.547 973.954 800.694L973.528 800.432C971.587 803.581 969.614 806.709 967.608 809.814L968.028 810.085C966.02 813.194 963.98 816.28 961.908 819.343L961.493 819.063C959.421 822.126 957.318 825.166 955.183 828.182L955.591 828.471C953.453 831.492 951.283 834.49 949.082 837.463L948.68 837.166C946.481 840.137 944.251 843.085 941.99 846.007L942.386 846.313C940.121 849.241 937.826 852.145 935.502 855.023L935.113 854.709C932.79 857.584 930.437 860.435 928.055 863.259L928.438 863.582C926.051 866.411 923.636 869.215 921.191 871.993L920.816 871.663C918.374 874.438 915.902 877.186 913.403 879.909L913.771 880.247C911.268 882.972 908.737 885.671 906.177 888.343L905.816 887.997C903.259 890.667 900.673 893.309 898.061 895.924L898.414 896.278C895.799 898.895 893.156 901.484 890.486 904.046L890.14 903.685C887.473 906.244 884.778 908.775 882.057 911.278L882.396 911.646C879.672 914.15 876.922 916.626 874.146 919.073L873.816 918.698C871.043 921.142 868.245 923.557 865.421 925.942L865.743 926.324C862.917 928.712 860.064 931.07 857.186 933.398L856.872 933.01C854 935.334 851.102 937.628 848.18 939.892L848.486 940.287C845.562 942.553 842.612 944.789 839.639 946.993L839.341 946.592C836.373 948.792 833.381 950.962 830.366 953.101L830.655 953.509C827.637 955.649 824.597 957.758 821.532 959.835L821.252 959.421C818.193 961.494 815.112 963.536 812.007 965.546L812.279 965.965C809.175 967.975 806.048 969.953 802.899 971.898L802.637 971.473C799.492 973.415 796.326 975.325 793.138 977.203L793.391 977.634C790.206 979.509 787 981.352 783.772 983.161L783.527 982.725C780.303 984.533 777.057 986.308 773.791 988.049L774.026 988.49C770.765 990.228 767.484 991.932 764.183 993.603L763.957 993.157C760.66 994.825 757.342 996.46 754.006 998.06L754.222 998.511C750.889 1000.11 747.537 1001.67 744.166 1003.2L743.959 1002.75C740.596 1004.27 737.213 1005.76 733.812 1007.22L734.009 1007.68C730.61 1009.14 727.192 1010.56 723.756 1011.94L723.569 1011.48C720.146 1012.86 716.705 1014.2 713.247 1015.51L713.424 1015.98C709.963 1017.29 706.484 1018.56 702.989 1019.8L702.822 1019.33C699.346 1020.56 695.854 1021.76 692.345 1022.92L692.502 1023.39C688.989 1024.55 685.461 1025.68 681.916 1026.77L681.769 1026.29C678.243 1027.37 674.701 1028.42 671.143 1029.43L671.28 1029.91C667.724 1030.92 664.153 1031.89 660.567 1032.83L660.441 1032.34C656.868 1033.27 653.281 1034.17 649.679 1035.03L649.795 1035.51C646.203 1036.37 642.597 1037.19 638.978 1037.97L638.873 1037.48C635.258 1038.26 631.63 1039 627.989 1039.7L628.084 1040.19C624.464 1040.9 620.832 1041.56 617.186 1042.18L617.102 1041.69C613.46 1042.32 609.805 1042.9 606.138 1043.45L606.212 1043.95C602.564 1044.49 598.903 1045 595.23 1045.47L595.167 1044.97C591.507 1045.44 587.835 1045.87 584.152 1046.27L584.205 1046.76C580.53 1047.16 576.844 1047.51 573.147 1047.83L573.104 1047.33C569.434 1047.64 565.754 1047.92 562.063 1048.15L562.095 1048.65C558.4 1048.89 554.695 1049.09 550.981 1049.25L550.959 1048.75C547.285 1048.91 543.6 1049.03 539.907 1049.11L539.918 1049.61Z" stroke="#EBB4B4" stroke-opacity="0.4" stroke-dasharray="11 11"/>
<path d="M539.918 1049.61C536.223 1049.69 532.52 1049.73 528.807 1049.74L528.807 1049.24C526.952 1049.24 525.096 1049.23 523.237 1049.22C521.378 1049.2 519.521 1049.17 517.667 1049.14L517.658 1049.64C513.946 1049.56 510.244 1049.45 506.552 1049.3L506.572 1048.8C502.88 1048.65 499.199 1048.47 495.527 1048.24L495.497 1048.74C491.786 1048.51 488.085 1048.25 484.396 1047.94L484.437 1047.45C480.751 1047.14 477.076 1046.8 473.412 1046.42L473.361 1046.92C469.67 1046.53 465.991 1046.11 462.323 1045.66L462.385 1045.16C458.71 1044.7 455.047 1044.2 451.396 1043.67L451.323 1044.16C447.66 1043.62 444.009 1043.05 440.371 1042.44L440.454 1041.94C436.797 1041.33 433.154 1040.68 429.524 1039.98L429.431 1040.48C425.797 1039.78 422.177 1039.06 418.571 1038.29L418.675 1037.8C415.047 1037.03 411.433 1036.22 407.834 1035.38L407.719 1035.86C404.115 1035.02 400.525 1034.13 396.949 1033.21L397.074 1032.73C393.488 1031.81 389.917 1030.85 386.362 1029.85L386.227 1030.33C382.659 1029.33 379.106 1028.29 375.57 1027.22L375.715 1026.74C372.176 1025.67 368.654 1024.56 365.147 1023.41L364.992 1023.88C361.468 1022.73 357.96 1021.54 354.47 1020.32L354.635 1019.85C351.148 1018.62 347.678 1017.36 344.225 1016.07L344.049 1016.54C340.577 1015.24 337.122 1013.9 333.686 1012.53L333.871 1012.06C330.437 1010.69 327.021 1009.28 323.624 1007.84L323.429 1008.3C320.018 1006.85 316.627 1005.37 313.255 1003.85L313.46 1003.4C310.086 1001.88 306.731 1000.33 303.396 998.74L303.181 999.191C299.838 997.601 296.515 995.976 293.212 994.318L293.437 993.871C290.129 992.21 286.842 990.515 283.576 988.787L283.342 989.229C280.072 987.499 276.822 985.735 273.594 983.938L273.837 983.501C270.603 981.701 267.39 979.868 264.199 978.001L263.946 978.433C260.752 976.565 257.579 974.664 254.429 972.731L254.69 972.305C251.537 970.37 248.406 968.403 245.297 966.403L245.027 966.824C241.914 964.822 238.823 962.787 235.756 960.721L236.036 960.307C232.969 958.241 229.925 956.143 226.904 954.015L226.616 954.423C223.59 952.291 220.588 950.127 217.61 947.933L217.907 947.53C214.931 945.337 211.979 943.113 209.052 940.859L208.747 941.255C205.814 938.997 202.905 936.707 200.022 934.389L200.336 933.999C197.455 931.682 194.6 929.336 191.771 926.96L191.449 927.343C188.614 924.963 185.805 922.553 183.022 920.114L183.352 919.738C180.571 917.302 177.817 914.836 175.09 912.343L174.752 912.712C172.021 910.215 169.317 907.689 166.64 905.135L166.985 904.773C164.31 902.222 161.662 899.642 159.041 897.035L158.689 897.39C156.066 894.78 153.47 892.143 150.903 889.478L151.263 889.131C148.698 886.47 146.162 883.781 143.653 881.065L143.286 881.404C140.776 878.686 138.294 875.942 135.841 873.171L136.215 872.84C133.765 870.072 131.344 867.279 128.953 864.46L128.572 864.783C126.178 861.962 123.814 859.114 121.48 856.242L121.868 855.927C119.537 853.059 117.237 850.166 114.967 847.249L114.572 847.556C112.3 844.636 110.059 841.691 107.848 838.723L108.249 838.424C106.042 835.46 103.866 832.473 101.721 829.462L101.314 829.752C99.1674 826.739 97.0525 823.702 94.9693 820.643L95.3827 820.361C93.303 817.307 91.2549 814.229 89.239 811.129L88.8198 811.402C86.8039 808.301 84.8201 805.179 82.8687 802.034L83.2936 801.77C81.3449 798.629 79.4286 795.466 77.5452 792.282L77.1148 792.536C75.2332 789.355 73.3844 786.152 71.569 782.928L72.0047 782.682C70.1909 779.461 68.4104 776.219 66.6637 772.956L66.2229 773.192C64.4788 769.934 62.7683 766.656 61.0919 763.357L61.5376 763.131C59.8633 759.837 58.223 756.522 56.6172 753.189L56.1667 753.405C54.5626 750.075 52.9929 746.726 51.4579 743.357L51.9129 743.15C50.3815 739.789 48.8848 736.409 47.4232 733.01L46.9639 733.208C45.5028 729.811 44.0767 726.395 42.6862 722.961L43.1496 722.773C41.7643 719.353 40.4143 715.914 39.0999 712.457L38.6326 712.635C37.3171 709.176 36.0374 705.699 34.794 702.205L35.265 702.038C34.0286 698.564 32.828 695.073 31.6637 691.566L31.1891 691.723C30.0237 688.213 28.8945 684.686 27.8021 681.143L28.2799 680.995C27.1929 677.47 26.1423 673.929 25.1286 670.372L24.6478 670.509C23.6348 666.955 22.6585 663.385 21.7194 659.801L22.2031 659.674C21.2673 656.102 20.3685 652.515 19.507 648.914L19.0207 649.03C18.1619 645.44 17.3403 641.835 16.5561 638.217L17.0448 638.111C16.2617 634.497 15.5162 630.87 14.8086 627.229L14.3178 627.324C13.6145 623.705 12.9487 620.073 12.3207 616.429L12.8134 616.344C12.186 612.702 11.5964 609.048 11.0451 605.382L10.5506 605.456C10.002 601.808 9.49122 598.147 9.01862 594.474L9.51446 594.411C9.04358 590.751 8.61076 587.08 8.21626 583.397L7.71906 583.45C7.32534 579.775 6.96994 576.089 6.65309 572.392L7.1513 572.349C6.83677 568.68 6.56029 564.999 6.32237 561.308L5.8234 561.341C5.58526 557.646 5.38567 553.942 5.22487 550.227L5.72436 550.206C5.56539 546.531 5.44448 542.846 5.36211 539.153L4.86223 539.164C4.77986 535.47 4.73578 531.766 4.73073 528.054L5.23076 528.053C5.22822 526.198 5.23534 524.342 5.25225 522.483C5.26916 520.624 5.29581 518.768 5.33208 516.914L4.83215 516.904C4.90473 513.192 5.01617 509.49 5.16572 505.798L5.66532 505.818C5.81487 502.127 6.00278 498.445 6.22856 494.774L5.72955 494.743C5.9579 491.032 6.22484 487.332 6.53014 483.642L7.02844 483.684C7.33346 479.998 7.67684 476.323 8.05795 472.66L7.56072 472.608C7.94477 468.917 8.36717 465.238 8.82767 461.571L9.3237 461.633C9.78513 457.958 10.2848 454.295 10.8221 450.645L10.3274 450.572C10.8668 446.909 11.4442 443.258 12.0591 439.62L12.552 439.703C13.17 436.047 13.8259 432.405 14.5194 428.775L14.0283 428.682C14.7225 425.049 15.4543 421.43 16.2233 417.824L16.7124 417.928C17.486 414.301 18.2975 410.688 19.146 407.089L18.6594 406.974C19.5092 403.37 20.3963 399.781 21.3203 396.207L21.8044 396.332C22.7312 392.747 23.6951 389.177 24.6958 385.623L24.2144 385.487C25.2186 381.921 26.2597 378.369 27.3372 374.834L27.8154 374.98C28.8937 371.442 30.0085 367.921 31.1594 364.416L30.6844 364.26C31.841 360.737 33.0342 357.231 34.2633 353.742L34.7349 353.909C35.9629 350.423 37.2268 346.955 38.5261 343.504L38.0582 343.328C39.3651 339.857 40.7078 336.404 42.086 332.969L42.55 333.156C43.927 329.724 45.3393 326.31 46.7866 322.915L46.3267 322.719C47.7794 319.311 49.2674 315.922 50.79 312.551L51.2457 312.757C52.7689 309.386 54.3268 306.034 55.9192 302.701L55.468 302.486C57.0639 299.146 58.6943 295.825 60.3587 292.525L60.8052 292.75C62.4714 289.446 64.1717 286.162 65.9057 282.899L65.4642 282.664C67.2003 279.397 68.9702 276.15 70.7732 272.924L71.2097 273.168C73.0155 269.938 74.8546 266.729 76.7266 263.541L76.2955 263.288C78.1693 260.097 80.0761 256.928 82.0153 253.781L82.441 254.044C84.3819 250.894 86.3554 247.766 88.3609 244.662L87.941 244.39C89.9492 241.281 91.9895 238.195 94.0614 235.132L94.4756 235.412C96.5476 232.349 98.6513 229.309 100.786 226.293L100.378 226.004C102.517 222.983 104.686 219.986 106.887 217.012L107.289 217.31C109.488 214.338 111.718 211.391 113.979 208.468L113.583 208.162C115.848 205.234 118.143 202.33 120.467 199.452L120.856 199.766C123.179 196.891 125.532 194.04 127.914 191.216L127.532 190.893C129.918 188.064 132.333 185.26 134.778 182.482L135.153 182.813C137.595 180.038 140.067 177.289 142.567 174.566L142.198 174.228C144.701 171.503 147.232 168.804 149.792 166.132L150.153 166.478C152.71 163.808 155.296 161.166 157.908 158.551L157.555 158.198C160.17 155.58 162.813 152.991 165.483 150.429L165.829 150.79C168.496 148.231 171.191 145.7 173.912 143.198L173.573 142.83C176.297 140.325 179.047 137.849 181.823 135.402L182.153 135.777C184.926 133.333 187.724 130.918 190.548 128.533L190.226 128.151C193.053 125.763 195.905 123.405 198.783 121.077L199.097 121.465C201.969 119.141 204.867 116.847 207.789 114.583L207.483 114.188C210.407 111.922 213.357 109.687 216.331 107.482L216.628 107.883C219.596 105.683 222.588 103.513 225.604 101.374L225.314 100.966C228.332 98.8264 231.373 96.7176 234.437 94.6405L234.717 95.0544C237.776 92.981 240.857 90.9392 243.962 88.9294L243.69 88.5097C246.794 86.5 249.921 84.5223 253.07 82.577L253.332 83.0024C256.477 81.0599 259.643 79.1497 262.831 77.2724L262.578 76.8416C265.763 74.9661 268.969 73.1233 272.197 71.3138L272.442 71.75C275.666 69.9422 278.912 68.1675 282.178 66.4266L281.943 65.9853C285.204 64.2474 288.485 62.5429 291.786 60.8724L292.012 61.3185C295.309 59.65 298.627 58.0153 301.964 56.4151L301.747 55.9643C305.08 54.366 308.432 52.802 311.803 51.2727L312.01 51.7281C315.373 50.2022 318.756 48.7109 322.157 47.2547L321.96 46.795C325.359 45.3395 328.777 43.9188 332.213 42.5336L332.4 42.9973C335.823 41.6172 339.264 40.2723 342.722 38.963L342.545 38.4954C346.006 37.1851 349.485 35.9104 352.98 34.6718L353.147 35.1431C356.623 33.9115 360.115 32.7157 363.624 31.5559L363.467 31.0812C366.98 29.9203 370.508 28.7957 374.053 27.7076L374.2 28.1856C377.726 27.1031 381.268 26.0569 384.826 25.0474L384.69 24.5664C388.245 23.5575 391.816 22.5852 395.402 21.65L395.528 22.1339C399.101 21.202 402.688 20.307 406.29 19.4493L406.175 18.9629C409.766 18.1077 413.372 17.2895 416.991 16.5087L417.096 16.9975C420.711 16.2179 424.339 15.4756 427.98 14.7711L427.885 14.2802C431.505 13.5799 435.137 12.917 438.783 12.2917L438.867 12.7845C442.509 12.1599 446.164 11.5729 449.831 11.024L449.757 10.5295C453.405 9.98338 457.066 9.47491 460.739 9.00451L460.802 9.50046C464.462 9.03168 468.134 8.60075 471.817 8.20807L471.764 7.71089C475.439 7.31906 479.125 6.96528 482.822 6.64995L482.865 7.14814C486.535 6.83513 490.215 6.56004 493.906 6.32326L493.874 5.82428C497.569 5.58728 501.274 5.38863 504.988 5.22873L505.01 5.72826C508.684 5.57008 512.369 5.44984 516.062 5.36793L516.051 4.86805C519.746 4.78613 523.449 4.74252 527.162 4.73759L527.162 5.23759C529.017 5.23512 530.873 5.24232 532.732 5.25923C534.591 5.27614 536.448 5.30271 538.302 5.3389L538.311 4.839C542.023 4.91146 545.725 5.02243 549.417 5.17154L549.397 5.67113C553.089 5.82021 556.77 6.00745 560.442 6.23245L560.472 5.73338C564.183 5.96083 567.884 6.22684 571.573 6.531L571.532 7.02931C575.218 7.33319 578.893 7.67518 582.557 8.0549L582.609 7.55757C586.299 7.94009 589.978 8.36087 593.646 8.81948L593.584 9.31561C597.259 9.77522 600.922 10.2729 604.573 10.8081L604.646 10.3134C608.309 10.8506 611.96 11.4255 615.598 12.038L615.515 12.531C619.172 13.1465 622.815 13.7999 626.445 14.4907L626.538 13.9995C630.172 14.6909 633.792 15.4199 637.398 16.1858L637.294 16.6749C640.922 17.4455 644.536 18.2537 648.135 19.0989L648.25 18.6122C651.854 19.4586 655.445 20.3423 659.02 21.2627L658.895 21.7469C662.481 22.67 666.052 23.6301 669.607 24.6268L669.742 24.1453C673.31 25.1456 676.863 26.1827 680.399 27.2561L680.254 27.7345C683.793 28.8086 687.315 29.9191 690.822 31.0655L690.977 30.5903C694.501 31.7426 698.009 32.9313 701.499 34.1558L701.334 34.6276C704.821 35.851 708.291 37.1102 711.744 38.4048L711.92 37.9366C715.392 39.2386 718.847 40.5763 722.283 41.9494L722.098 42.4137C725.532 43.7857 728.948 45.193 732.345 46.6351L732.541 46.1749C735.951 47.6224 739.342 49.1049 742.714 50.6221L742.509 51.0781C745.883 52.596 749.238 54.1486 752.573 55.7354L752.788 55.2839C756.131 56.8742 759.454 58.4989 762.757 60.1575L762.532 60.6043C765.84 62.265 769.127 63.9597 772.393 65.688L772.627 65.246C775.897 66.9763 779.147 68.7402 782.375 70.5372L782.132 70.9741C785.366 72.7742 788.579 74.6075 791.77 76.4737L792.023 76.0421C795.217 77.91 798.39 79.8108 801.54 81.7439L801.279 82.1701C804.432 84.105 807.563 86.0724 810.672 88.0718L810.942 87.6513C814.055 89.6535 817.146 91.6878 820.213 93.7536L819.933 94.1683C823.001 96.2343 826.045 98.3318 829.065 100.46L829.353 100.052C832.379 102.184 835.381 104.348 838.359 106.542L838.062 106.945C841.038 109.138 843.99 111.362 846.917 113.616L847.222 113.22C850.155 115.479 853.064 117.768 855.947 120.086L855.633 120.476C858.514 122.793 861.369 125.139 864.198 127.515L864.52 127.132C867.355 129.512 870.164 131.922 872.947 134.361L872.617 134.737C875.398 137.173 878.152 139.639 880.879 142.133L881.217 141.764C883.948 144.261 886.652 146.786 889.329 149.34L888.984 149.702C891.659 152.253 894.307 154.833 896.928 157.44L897.28 157.086C899.903 159.695 902.499 162.332 905.066 164.997L904.706 165.344C907.271 168.006 909.807 170.695 912.316 173.41L912.683 173.071C915.193 175.789 917.675 178.533 920.128 181.304L919.754 181.636C922.204 184.403 924.625 187.196 927.016 190.015L927.397 189.692C929.791 192.513 932.155 195.361 934.489 198.233L934.101 198.549C936.432 201.416 938.732 204.309 941.002 207.226L941.397 206.919C943.669 209.839 945.91 212.784 948.121 215.753L947.72 216.051C949.927 219.015 952.103 222.002 954.248 225.013L954.655 224.723C956.802 227.736 958.917 230.773 961 233.832L960.586 234.114C962.666 237.168 964.714 240.246 966.73 243.346L967.149 243.074C969.165 246.174 971.149 249.297 973.1 252.441L972.675 252.705C974.624 255.846 976.54 259.009 978.424 262.193L978.854 261.939C980.736 265.12 982.585 268.323 984.4 271.548L983.964 271.793C985.778 275.014 987.559 278.256 989.305 281.519L989.746 281.283C991.49 284.541 993.201 287.819 994.877 291.118L994.431 291.344C996.106 294.639 997.746 297.953 999.352 301.287L999.802 301.07C1001.41 304.4 1002.98 307.75 1004.51 311.118L1004.06 311.325C1005.59 314.686 1007.08 318.066 1008.55 321.465L1009.01 321.267C1010.47 324.664 1011.89 328.08 1013.28 331.514L1012.82 331.702C1014.2 335.123 1015.55 338.561 1016.87 342.018L1017.34 341.84C1018.65 345.299 1019.93 348.776 1021.18 352.27L1020.7 352.438C1021.94 355.911 1023.14 359.402 1024.31 362.909L1024.78 362.752C1025.95 366.263 1027.07 369.789 1028.17 373.332L1027.69 373.48C1028.78 377.005 1029.83 380.546 1030.84 384.103L1031.32 383.966C1032.33 387.52 1033.31 391.09 1034.25 394.674L1033.77 394.801C1034.7 398.373 1035.6 401.96 1036.46 405.561L1036.95 405.445C1037.81 409.035 1038.63 412.64 1039.41 416.259L1038.92 416.364C1039.71 419.978 1040.45 423.606 1041.16 427.246L1041.65 427.151C1042.35 430.77 1043.02 434.402 1043.65 438.047L1043.16 438.132C1043.78 441.773 1044.37 445.427 1044.92 449.093L1045.42 449.019C1045.97 452.667 1046.48 456.328 1046.95 460.001L1046.45 460.065C1046.93 463.724 1047.36 467.395 1047.75 471.078L1048.25 471.025C1048.64 474.7 1049 478.386 1049.32 482.083L1048.82 482.126C1049.13 485.796 1049.41 489.476 1049.65 493.167L1050.15 493.135C1050.38 496.829 1050.58 500.534 1050.74 504.248L1050.24 504.27C1050.4 507.944 1050.52 511.629 1050.61 515.323L1051.11 515.311C1051.19 519.006 1051.23 522.709 1051.24 526.422L1050.74 526.422C1050.74 528.277 1050.73 530.133 1050.72 531.992C1050.7 533.851 1050.67 535.707 1050.64 537.561L1051.14 537.571C1051.06 541.283 1050.95 544.985 1050.8 548.677L1050.3 548.657C1050.15 552.349 1049.97 556.03 1049.74 559.701L1050.24 559.732C1050.01 563.443 1049.74 567.144 1049.44 570.833L1048.94 570.792C1048.64 574.477 1048.29 578.152 1047.91 581.816L1048.41 581.867C1048.02 585.558 1047.6 589.237 1047.14 592.904L1046.65 592.842C1046.18 596.517 1045.68 600.18 1045.15 603.83L1045.64 603.903C1045.1 607.566 1044.52 611.217 1043.91 614.855L1043.42 614.772C1042.8 618.428 1042.14 622.07 1041.45 625.7L1041.94 625.794C1041.25 629.426 1040.51 633.046 1039.75 636.651L1039.26 636.547C1038.48 640.174 1037.67 643.787 1036.82 647.386L1037.31 647.501C1036.46 651.105 1035.57 654.694 1034.65 658.268L1034.16 658.143C1033.24 661.728 1032.27 665.298 1031.27 668.852L1031.75 668.988C1030.75 672.555 1029.71 676.106 1028.63 679.641L1028.15 679.495C1027.08 683.033 1025.96 686.554 1024.81 690.059L1025.28 690.215C1024.13 693.738 1022.93 697.244 1021.71 700.733L1021.23 700.567C1020.01 704.052 1018.74 707.52 1017.44 710.971L1017.91 711.147C1016.6 714.618 1015.26 718.071 1013.88 721.506L1013.42 721.32C1012.04 724.751 1010.63 728.165 1009.18 731.56L1009.64 731.756C1008.19 735.164 1006.7 738.554 1005.18 741.924L1004.72 741.718C1003.2 745.089 1001.64 748.441 1000.05 751.774L1000.5 751.989C998.905 755.33 997.275 758.65 995.61 761.95L995.164 761.725C993.498 765.029 991.797 768.313 990.063 771.576L990.505 771.811C988.769 775.079 986.999 778.325 985.196 781.551L984.759 781.307C982.954 784.537 981.114 787.747 979.242 790.934L979.674 791.187C977.8 794.378 975.893 797.547 973.954 800.694L973.528 800.432C971.587 803.581 969.614 806.709 967.608 809.814L968.028 810.085C966.02 813.194 963.98 816.28 961.908 819.343L961.493 819.063C959.421 822.126 957.318 825.166 955.183 828.182L955.591 828.471C953.453 831.492 951.283 834.49 949.082 837.463L948.68 837.166C946.481 840.137 944.251 843.085 941.99 846.007L942.386 846.313C940.121 849.241 937.826 852.145 935.502 855.023L935.113 854.709C932.79 857.584 930.437 860.435 928.055 863.259L928.438 863.582C926.051 866.411 923.636 869.215 921.191 871.993L920.816 871.663C918.374 874.438 915.902 877.186 913.403 879.909L913.771 880.247C911.268 882.972 908.737 885.671 906.177 888.343L905.816 887.997C903.259 890.667 900.673 893.309 898.061 895.924L898.414 896.278C895.799 898.895 893.156 901.484 890.486 904.046L890.14 903.685C887.473 906.244 884.778 908.775 882.057 911.278L882.396 911.646C879.672 914.15 876.922 916.626 874.146 919.073L873.816 918.698C871.043 921.142 868.245 923.557 865.421 925.942L865.743 926.324C862.917 928.712 860.064 931.07 857.186 933.398L856.872 933.01C854 935.334 851.102 937.628 848.18 939.892L848.486 940.287C845.562 942.553 842.612 944.789 839.639 946.993L839.341 946.592C836.373 948.792 833.381 950.962 830.366 953.101L830.655 953.509C827.637 955.649 824.597 957.758 821.532 959.835L821.252 959.421C818.193 961.494 815.112 963.536 812.007 965.546L812.279 965.965C809.175 967.975 806.048 969.953 802.899 971.898L802.637 971.473C799.492 973.415 796.326 975.325 793.138 977.203L793.391 977.634C790.206 979.509 787 981.352 783.772 983.161L783.527 982.725C780.303 984.533 777.057 986.308 773.791 988.049L774.026 988.49C770.765 990.228 767.484 991.932 764.183 993.603L763.957 993.157C760.66 994.825 757.342 996.46 754.006 998.06L754.222 998.511C750.889 1000.11 747.537 1001.67 744.166 1003.2L743.959 1002.75C740.596 1004.27 737.213 1005.76 733.812 1007.22L734.009 1007.68C730.61 1009.14 727.192 1010.56 723.756 1011.94L723.569 1011.48C720.146 1012.86 716.705 1014.2 713.247 1015.51L713.424 1015.98C709.963 1017.29 706.484 1018.56 702.989 1019.8L702.822 1019.33C699.346 1020.56 695.854 1021.76 692.345 1022.92L692.502 1023.39C688.989 1024.55 685.461 1025.68 681.916 1026.77L681.769 1026.29C678.243 1027.37 674.701 1028.42 671.143 1029.43L671.28 1029.91C667.724 1030.92 664.153 1031.89 660.567 1032.83L660.441 1032.34C656.868 1033.27 653.281 1034.17 649.679 1035.03L649.795 1035.51C646.203 1036.37 642.597 1037.19 638.978 1037.97L638.873 1037.48C635.258 1038.26 631.63 1039 627.989 1039.7L628.084 1040.19C624.464 1040.9 620.832 1041.56 617.186 1042.18L617.102 1041.69C613.46 1042.32 609.805 1042.9 606.138 1043.45L606.212 1043.95C602.564 1044.49 598.903 1045 595.23 1045.47L595.167 1044.97C591.507 1045.44 587.835 1045.87 584.152 1046.27L584.205 1046.76C580.53 1047.16 576.844 1047.51 573.147 1047.83L573.104 1047.33C569.434 1047.64 565.754 1047.92 562.063 1048.15L562.095 1048.65C558.4 1048.89 554.695 1049.09 550.981 1049.25L550.959 1048.75C547.285 1048.91 543.6 1049.03 539.907 1049.11L539.918 1049.61Z" stroke="#EBB4B4" stroke-opacity="0.4" stroke-dasharray="11 11"/>
<path d="M539.918 1049.61C536.223 1049.69 532.52 1049.73 528.807 1049.74L528.807 1049.24C526.952 1049.24 525.096 1049.23 523.237 1049.22C521.378 1049.2 519.521 1049.17 517.667 1049.14L517.658 1049.64C513.946 1049.56 510.244 1049.45 506.552 1049.3L506.572 1048.8C502.88 1048.65 499.199 1048.47 495.527 1048.24L495.497 1048.74C491.786 1048.51 488.085 1048.25 484.396 1047.94L484.437 1047.45C480.751 1047.14 477.076 1046.8 473.412 1046.42L473.361 1046.92C469.67 1046.53 465.991 1046.11 462.323 1045.66L462.385 1045.16C458.71 1044.7 455.047 1044.2 451.396 1043.67L451.323 1044.16C447.66 1043.62 444.009 1043.05 440.371 1042.44L440.454 1041.94C436.797 1041.33 433.154 1040.68 429.524 1039.98L429.431 1040.48C425.797 1039.78 422.177 1039.06 418.571 1038.29L418.675 1037.8C415.047 1037.03 411.433 1036.22 407.834 1035.38L407.719 1035.86C404.115 1035.02 400.525 1034.13 396.949 1033.21L397.074 1032.73C393.488 1031.81 389.917 1030.85 386.362 1029.85L386.227 1030.33C382.659 1029.33 379.106 1028.29 375.57 1027.22L375.715 1026.74C372.176 1025.67 368.654 1024.56 365.147 1023.41L364.992 1023.88C361.468 1022.73 357.96 1021.54 354.47 1020.32L354.635 1019.85C351.148 1018.62 347.678 1017.36 344.225 1016.07L344.049 1016.54C340.577 1015.24 337.122 1013.9 333.686 1012.53L333.871 1012.06C330.437 1010.69 327.021 1009.28 323.624 1007.84L323.429 1008.3C320.018 1006.85 316.627 1005.37 313.255 1003.85L313.46 1003.4C310.086 1001.88 306.731 1000.33 303.396 998.74L303.181 999.191C299.838 997.601 296.515 995.976 293.212 994.318L293.437 993.871C290.129 992.21 286.842 990.515 283.576 988.787L283.342 989.229C280.072 987.499 276.822 985.735 273.594 983.938L273.837 983.501C270.603 981.701 267.39 979.868 264.199 978.001L263.946 978.433C260.752 976.565 257.579 974.664 254.429 972.731L254.69 972.305C251.537 970.37 248.406 968.403 245.297 966.403L245.027 966.824C241.914 964.822 238.823 962.787 235.756 960.721L236.036 960.307C232.969 958.241 229.925 956.143 226.904 954.015L226.616 954.423C223.59 952.291 220.588 950.127 217.61 947.933L217.907 947.53C214.931 945.337 211.979 943.113 209.052 940.859L208.747 941.255C205.814 938.997 202.905 936.707 200.022 934.389L200.336 933.999C197.455 931.682 194.6 929.336 191.771 926.96L191.449 927.343C188.614 924.963 185.805 922.553 183.022 920.114L183.352 919.738C180.571 917.302 177.817 914.836 175.09 912.343L174.752 912.712C172.021 910.215 169.317 907.689 166.64 905.135L166.985 904.773C164.31 902.222 161.662 899.642 159.041 897.035L158.689 897.39C156.066 894.78 153.47 892.143 150.903 889.478L151.263 889.131C148.698 886.47 146.162 883.781 143.653 881.065L143.286 881.404C140.776 878.686 138.294 875.942 135.841 873.171L136.215 872.84C133.765 870.072 131.344 867.279 128.953 864.46L128.572 864.783C126.178 861.962 123.814 859.114 121.48 856.242L121.868 855.927C119.537 853.059 117.237 850.166 114.967 847.249L114.572 847.556C112.3 844.636 110.059 841.691 107.848 838.723L108.249 838.424C106.042 835.46 103.866 832.473 101.721 829.462L101.314 829.752C99.1674 826.739 97.0525 823.702 94.9693 820.643L95.3827 820.361C93.303 817.307 91.2549 814.229 89.239 811.129L88.8198 811.402C86.8039 808.301 84.8201 805.179 82.8687 802.034L83.2936 801.77C81.3449 798.629 79.4286 795.466 77.5452 792.282L77.1148 792.536C75.2332 789.355 73.3844 786.152 71.569 782.928L72.0047 782.682C70.1909 779.461 68.4104 776.219 66.6637 772.956L66.2229 773.192C64.4788 769.934 62.7683 766.656 61.0919 763.357L61.5376 763.131C59.8633 759.837 58.223 756.522 56.6172 753.189L56.1667 753.405C54.5626 750.075 52.9929 746.726 51.4579 743.357L51.9129 743.15C50.3815 739.789 48.8848 736.409 47.4232 733.01L46.9639 733.208C45.5028 729.811 44.0767 726.395 42.6862 722.961L43.1496 722.773C41.7643 719.353 40.4143 715.914 39.0999 712.457L38.6326 712.635C37.3171 709.176 36.0374 705.699 34.794 702.205L35.265 702.038C34.0286 698.564 32.828 695.073 31.6637 691.566L31.1891 691.723C30.0237 688.213 28.8945 684.686 27.8021 681.143L28.2799 680.995C27.1929 677.47 26.1423 673.929 25.1286 670.372L24.6478 670.509C23.6348 666.955 22.6585 663.385 21.7194 659.801L22.2031 659.674C21.2673 656.102 20.3685 652.515 19.507 648.914L19.0207 649.03C18.1619 645.44 17.3403 641.835 16.5561 638.217L17.0448 638.111C16.2617 634.497 15.5162 630.87 14.8086 627.229L14.3178 627.324C13.6145 623.705 12.9487 620.073 12.3207 616.429L12.8134 616.344C12.186 612.702 11.5964 609.048 11.0451 605.382L10.5506 605.456C10.002 601.808 9.49122 598.147 9.01862 594.474L9.51446 594.411C9.04358 590.751 8.61076 587.08 8.21626 583.397L7.71906 583.45C7.32534 579.775 6.96994 576.089 6.65309 572.392L7.1513 572.349C6.83677 568.68 6.56029 564.999 6.32237 561.308L5.8234 561.341C5.58526 557.646 5.38567 553.942 5.22487 550.227L5.72436 550.206C5.56539 546.531 5.44448 542.846 5.36211 539.153L4.86223 539.164C4.77986 535.47 4.73578 531.766 4.73073 528.054L5.23076 528.053C5.22822 526.198 5.23534 524.342 5.25225 522.483C5.26916 520.624 5.29581 518.768 5.33208 516.914L4.83215 516.904C4.90473 513.192 5.01617 509.49 5.16572 505.798L5.66532 505.818C5.81487 502.127 6.00278 498.445 6.22856 494.774L5.72955 494.743C5.9579 491.032 6.22484 487.332 6.53014 483.642L7.02844 483.684C7.33346 479.998 7.67684 476.323 8.05795 472.66L7.56072 472.608C7.94477 468.917 8.36717 465.238 8.82767 461.571L9.3237 461.633C9.78513 457.958 10.2848 454.295 10.8221 450.645L10.3274 450.572C10.8668 446.909 11.4442 443.258 12.0591 439.62L12.552 439.703C13.17 436.047 13.8259 432.405 14.5194 428.775L14.0283 428.682C14.7225 425.049 15.4543 421.43 16.2233 417.824L16.7124 417.928C17.486 414.301 18.2975 410.688 19.146 407.089L18.6594 406.974C19.5092 403.37 20.3963 399.781 21.3203 396.207L21.8044 396.332C22.7312 392.747 23.6951 389.177 24.6958 385.623L24.2144 385.487C25.2186 381.921 26.2597 378.369 27.3372 374.834L27.8154 374.98C28.8937 371.442 30.0085 367.921 31.1594 364.416L30.6844 364.26C31.841 360.737 33.0342 357.231 34.2633 353.742L34.7349 353.909C35.9629 350.423 37.2268 346.955 38.5261 343.504L38.0582 343.328C39.3651 339.857 40.7078 336.404 42.086 332.969L42.55 333.156C43.927 329.724 45.3393 326.31 46.7866 322.915L46.3267 322.719C47.7794 319.311 49.2674 315.922 50.79 312.551L51.2457 312.757C52.7689 309.386 54.3268 306.034 55.9192 302.701L55.468 302.486C57.0639 299.146 58.6943 295.825 60.3587 292.525L60.8052 292.75C62.4714 289.446 64.1717 286.162 65.9057 282.899L65.4642 282.664C67.2003 279.397 68.9702 276.15 70.7732 272.924L71.2097 273.168C73.0155 269.938 74.8546 266.729 76.7266 263.541L76.2955 263.288C78.1693 260.097 80.0761 256.928 82.0153 253.781L82.441 254.044C84.3819 250.894 86.3554 247.766 88.3609 244.662L87.941 244.39C89.9492 241.281 91.9895 238.195 94.0614 235.132L94.4756 235.412C96.5476 232.349 98.6513 229.309 100.786 226.293L100.378 226.004C102.517 222.983 104.686 219.986 106.887 217.012L107.289 217.31C109.488 214.338 111.718 211.391 113.979 208.468L113.583 208.162C115.848 205.234 118.143 202.33 120.467 199.452L120.856 199.766C123.179 196.891 125.532 194.04 127.914 191.216L127.532 190.893C129.918 188.064 132.333 185.26 134.778 182.482L135.153 182.813C137.595 180.038 140.067 177.289 142.567 174.566L142.198 174.228C144.701 171.503 147.232 168.804 149.792 166.132L150.153 166.478C152.71 163.808 155.296 161.166 157.908 158.551L157.555 158.198C160.17 155.58 162.813 152.991 165.483 150.429L165.829 150.79C168.496 148.231 171.191 145.7 173.912 143.198L173.573 142.83C176.297 140.325 179.047 137.849 181.823 135.402L182.153 135.777C184.926 133.333 187.724 130.918 190.548 128.533L190.226 128.151C193.053 125.763 195.905 123.405 198.783 121.077L199.097 121.465C201.969 119.141 204.867 116.847 207.789 114.583L207.483 114.188C210.407 111.922 213.357 109.687 216.331 107.482L216.628 107.883C219.596 105.683 222.588 103.513 225.604 101.374L225.314 100.966C228.332 98.8264 231.373 96.7176 234.437 94.6405L234.717 95.0544C237.776 92.981 240.857 90.9392 243.962 88.9294L243.69 88.5097C246.794 86.5 249.921 84.5223 253.07 82.577L253.332 83.0024C256.477 81.0599 259.643 79.1497 262.831 77.2724L262.578 76.8416C265.763 74.9661 268.969 73.1233 272.197 71.3138L272.442 71.75C275.666 69.9422 278.912 68.1675 282.178 66.4266L281.943 65.9853C285.204 64.2474 288.485 62.5429 291.786 60.8724L292.012 61.3185C295.309 59.65 298.627 58.0153 301.964 56.4151L301.747 55.9643C305.08 54.366 308.432 52.802 311.803 51.2727L312.01 51.7281C315.373 50.2022 318.756 48.7109 322.157 47.2547L321.96 46.795C325.359 45.3395 328.777 43.9188 332.213 42.5336L332.4 42.9973C335.823 41.6172 339.264 40.2723 342.722 38.963L342.545 38.4954C346.006 37.1851 349.485 35.9104 352.98 34.6718L353.147 35.1431C356.623 33.9115 360.115 32.7157 363.624 31.5559L363.467 31.0812C366.98 29.9203 370.508 28.7957 374.053 27.7076L374.2 28.1856C377.726 27.1031 381.268 26.0569 384.826 25.0474L384.69 24.5664C388.245 23.5575 391.816 22.5852 395.402 21.65L395.528 22.1339C399.101 21.202 402.688 20.307 406.29 19.4493L406.175 18.9629C409.766 18.1077 413.372 17.2895 416.991 16.5087L417.096 16.9975C420.711 16.2179 424.339 15.4756 427.98 14.7711L427.885 14.2802C431.505 13.5799 435.137 12.917 438.783 12.2917L438.867 12.7845C442.509 12.1599 446.164 11.5729 449.831 11.024L449.757 10.5295C453.405 9.98338 457.066 9.47491 460.739 9.00451L460.802 9.50046C464.462 9.03168 468.134 8.60075 471.817 8.20807L471.764 7.71089C475.439 7.31906 479.125 6.96528 482.822 6.64995L482.865 7.14814C486.535 6.83513 490.215 6.56004 493.906 6.32326L493.874 5.82428C497.569 5.58728 501.274 5.38863 504.988 5.22873L505.01 5.72826C508.684 5.57008 512.369 5.44984 516.062 5.36793L516.051 4.86805C519.746 4.78613 523.449 4.74252 527.162 4.73759L527.162 5.23759C529.017 5.23512 530.873 5.24232 532.732 5.25923C534.591 5.27614 536.448 5.30271 538.302 5.3389L538.311 4.839C542.023 4.91146 545.725 5.02243 549.417 5.17154L549.397 5.67113C553.089 5.82021 556.77 6.00745 560.442 6.23245L560.472 5.73338C564.183 5.96083 567.884 6.22684 571.573 6.531L571.532 7.02931C575.218 7.33319 578.893 7.67518 582.557 8.0549L582.609 7.55757C586.299 7.94009 589.978 8.36087 593.646 8.81948L593.584 9.31561C597.259 9.77522 600.922 10.2729 604.573 10.8081L604.646 10.3134C608.309 10.8506 611.96 11.4255 615.598 12.038L615.515 12.531C619.172 13.1465 622.815 13.7999 626.445 14.4907L626.538 13.9995C630.172 14.6909 633.792 15.4199 637.398 16.1858L637.294 16.6749C640.922 17.4455 644.536 18.2537 648.135 19.0989L648.25 18.6122C651.854 19.4586 655.445 20.3423 659.02 21.2627L658.895 21.7469C662.481 22.67 666.052 23.6301 669.607 24.6268L669.742 24.1453C673.31 25.1456 676.863 26.1827 680.399 27.2561L680.254 27.7345C683.793 28.8086 687.315 29.9191 690.822 31.0655L690.977 30.5903C694.501 31.7426 698.009 32.9313 701.499 34.1558L701.334 34.6276C704.821 35.851 708.291 37.1102 711.744 38.4048L711.92 37.9366C715.392 39.2386 718.847 40.5763 722.283 41.9494L722.098 42.4137C725.532 43.7857 728.948 45.193 732.345 46.6351L732.541 46.1749C735.951 47.6224 739.342 49.1049 742.714 50.6221L742.509 51.0781C745.883 52.596 749.238 54.1486 752.573 55.7354L752.788 55.2839C756.131 56.8742 759.454 58.4989 762.757 60.1575L762.532 60.6043C765.84 62.265 769.127 63.9597 772.393 65.688L772.627 65.246C775.897 66.9763 779.147 68.7402 782.375 70.5372L782.132 70.9741C785.366 72.7742 788.579 74.6075 791.77 76.4737L792.023 76.0421C795.217 77.91 798.39 79.8108 801.54 81.7439L801.279 82.1701C804.432 84.105 807.563 86.0724 810.672 88.0718L810.942 87.6513C814.055 89.6535 817.146 91.6878 820.213 93.7536L819.933 94.1683C823.001 96.2343 826.045 98.3318 829.065 100.46L829.353 100.052C832.379 102.184 835.381 104.348 838.359 106.542L838.062 106.945C841.038 109.138 843.99 111.362 846.917 113.616L847.222 113.22C850.155 115.479 853.064 117.768 855.947 120.086L855.633 120.476C858.514 122.793 861.369 125.139 864.198 127.515L864.52 127.132C867.355 129.512 870.164 131.922 872.947 134.361L872.617 134.737C875.398 137.173 878.152 139.639 880.879 142.133L881.217 141.764C883.948 144.261 886.652 146.786 889.329 149.34L888.984 149.702C891.659 152.253 894.307 154.833 896.928 157.44L897.28 157.086C899.903 159.695 902.499 162.332 905.066 164.997L904.706 165.344C907.271 168.006 909.807 170.695 912.316 173.41L912.683 173.071C915.193 175.789 917.675 178.533 920.128 181.304L919.754 181.636C922.204 184.403 924.625 187.196 927.016 190.015L927.397 189.692C929.791 192.513 932.155 195.361 934.489 198.233L934.101 198.549C936.432 201.416 938.732 204.309 941.002 207.226L941.397 206.919C943.669 209.839 945.91 212.784 948.121 215.753L947.72 216.051C949.927 219.015 952.103 222.002 954.248 225.013L954.655 224.723C956.802 227.736 958.917 230.773 961 233.832L960.586 234.114C962.666 237.168 964.714 240.246 966.73 243.346L967.149 243.074C969.165 246.174 971.149 249.297 973.1 252.441L972.675 252.705C974.624 255.846 976.54 259.009 978.424 262.193L978.854 261.939C980.736 265.12 982.585 268.323 984.4 271.548L983.964 271.793C985.778 275.014 987.559 278.256 989.305 281.519L989.746 281.283C991.49 284.541 993.201 287.819 994.877 291.118L994.431 291.344C996.106 294.639 997.746 297.953 999.352 301.287L999.802 301.07C1001.41 304.4 1002.98 307.75 1004.51 311.118L1004.06 311.325C1005.59 314.686 1007.08 318.066 1008.55 321.465L1009.01 321.267C1010.47 324.664 1011.89 328.08 1013.28 331.514L1012.82 331.702C1014.2 335.123 1015.55 338.561 1016.87 342.018L1017.34 341.84C1018.65 345.299 1019.93 348.776 1021.18 352.27L1020.7 352.438C1021.94 355.911 1023.14 359.402 1024.31 362.909L1024.78 362.752C1025.95 366.263 1027.07 369.789 1028.17 373.332L1027.69 373.48C1028.78 377.005 1029.83 380.546 1030.84 384.103L1031.32 383.966C1032.33 387.52 1033.31 391.09 1034.25 394.674L1033.77 394.801C1034.7 398.373 1035.6 401.96 1036.46 405.561L1036.95 405.445C1037.81 409.035 1038.63 412.64 1039.41 416.259L1038.92 416.364C1039.71 419.978 1040.45 423.606 1041.16 427.246L1041.65 427.151C1042.35 430.77 1043.02 434.402 1043.65 438.047L1043.16 438.132C1043.78 441.773 1044.37 445.427 1044.92 449.093L1045.42 449.019C1045.97 452.667 1046.48 456.328 1046.95 460.001L1046.45 460.065C1046.93 463.724 1047.36 467.395 1047.75 471.078L1048.25 471.025C1048.64 474.7 1049 478.386 1049.32 482.083L1048.82 482.126C1049.13 485.796 1049.41 489.476 1049.65 493.167L1050.15 493.135C1050.38 496.829 1050.58 500.534 1050.74 504.248L1050.24 504.27C1050.4 507.944 1050.52 511.629 1050.61 515.323L1051.11 515.311C1051.19 519.006 1051.23 522.709 1051.24 526.422L1050.74 526.422C1050.74 528.277 1050.73 530.133 1050.72 531.992C1050.7 533.851 1050.67 535.707 1050.64 537.561L1051.14 537.571C1051.06 541.283 1050.95 544.985 1050.8 548.677L1050.3 548.657C1050.15 552.349 1049.97 556.03 1049.74 559.701L1050.24 559.732C1050.01 563.443 1049.74 567.144 1049.44 570.833L1048.94 570.792C1048.64 574.477 1048.29 578.152 1047.91 581.816L1048.41 581.867C1048.02 585.558 1047.6 589.237 1047.14 592.904L1046.65 592.842C1046.18 596.517 1045.68 600.18 1045.15 603.83L1045.64 603.903C1045.1 607.566 1044.52 611.217 1043.91 614.855L1043.42 614.772C1042.8 618.428 1042.14 622.07 1041.45 625.7L1041.94 625.794C1041.25 629.426 1040.51 633.046 1039.75 636.651L1039.26 636.547C1038.48 640.174 1037.67 643.787 1036.82 647.386L1037.31 647.501C1036.46 651.105 1035.57 654.694 1034.65 658.268L1034.16 658.143C1033.24 661.728 1032.27 665.298 1031.27 668.852L1031.75 668.988C1030.75 672.555 1029.71 676.106 1028.63 679.641L1028.15 679.495C1027.08 683.033 1025.96 686.554 1024.81 690.059L1025.28 690.215C1024.13 693.738 1022.93 697.244 1021.71 700.733L1021.23 700.567C1020.01 704.052 1018.74 707.52 1017.44 710.971L1017.91 711.147C1016.6 714.618 1015.26 718.071 1013.88 721.506L1013.42 721.32C1012.04 724.751 1010.63 728.165 1009.18 731.56L1009.64 731.756C1008.19 735.164 1006.7 738.554 1005.18 741.924L1004.72 741.718C1003.2 745.089 1001.64 748.441 1000.05 751.774L1000.5 751.989C998.905 755.33 997.275 758.65 995.61 761.95L995.164 761.725C993.498 765.029 991.797 768.313 990.063 771.576L990.505 771.811C988.769 775.079 986.999 778.325 985.196 781.551L984.759 781.307C982.954 784.537 981.114 787.747 979.242 790.934L979.674 791.187C977.8 794.378 975.893 797.547 973.954 800.694L973.528 800.432C971.587 803.581 969.614 806.709 967.608 809.814L968.028 810.085C966.02 813.194 963.98 816.28 961.908 819.343L961.493 819.063C959.421 822.126 957.318 825.166 955.183 828.182L955.591 828.471C953.453 831.492 951.283 834.49 949.082 837.463L948.68 837.166C946.481 840.137 944.251 843.085 941.99 846.007L942.386 846.313C940.121 849.241 937.826 852.145 935.502 855.023L935.113 854.709C932.79 857.584 930.437 860.435 928.055 863.259L928.438 863.582C926.051 866.411 923.636 869.215 921.191 871.993L920.816 871.663C918.374 874.438 915.902 877.186 913.403 879.909L913.771 880.247C911.268 882.972 908.737 885.671 906.177 888.343L905.816 887.997C903.259 890.667 900.673 893.309 898.061 895.924L898.414 896.278C895.799 898.895 893.156 901.484 890.486 904.046L890.14 903.685C887.473 906.244 884.778 908.775 882.057 911.278L882.396 911.646C879.672 914.15 876.922 916.626 874.146 919.073L873.816 918.698C871.043 921.142 868.245 923.557 865.421 925.942L865.743 926.324C862.917 928.712 860.064 931.07 857.186 933.398L856.872 933.01C854 935.334 851.102 937.628 848.18 939.892L848.486 940.287C845.562 942.553 842.612 944.789 839.639 946.993L839.341 946.592C836.373 948.792 833.381 950.962 830.366 953.101L830.655 953.509C827.637 955.649 824.597 957.758 821.532 959.835L821.252 959.421C818.193 961.494 815.112 963.536 812.007 965.546L812.279 965.965C809.175 967.975 806.048 969.953 802.899 971.898L802.637 971.473C799.492 973.415 796.326 975.325 793.138 977.203L793.391 977.634C790.206 979.509 787 981.352 783.772 983.161L783.527 982.725C780.303 984.533 777.057 986.308 773.791 988.049L774.026 988.49C770.765 990.228 767.484 991.932 764.183 993.603L763.957 993.157C760.66 994.825 757.342 996.46 754.006 998.06L754.222 998.511C750.889 1000.11 747.537 1001.67 744.166 1003.2L743.959 1002.75C740.596 1004.27 737.213 1005.76 733.812 1007.22L734.009 1007.68C730.61 1009.14 727.192 1010.56 723.756 1011.94L723.569 1011.48C720.146 1012.86 716.705 1014.2 713.247 1015.51L713.424 1015.98C709.963 1017.29 706.484 1018.56 702.989 1019.8L702.822 1019.33C699.346 1020.56 695.854 1021.76 692.345 1022.92L692.502 1023.39C688.989 1024.55 685.461 1025.68 681.916 1026.77L681.769 1026.29C678.243 1027.37 674.701 1028.42 671.143 1029.43L671.28 1029.91C667.724 1030.92 664.153 1031.89 660.567 1032.83L660.441 1032.34C656.868 1033.27 653.281 1034.17 649.679 1035.03L649.795 1035.51C646.203 1036.37 642.597 1037.19 638.978 1037.97L638.873 1037.48C635.258 1038.26 631.63 1039 627.989 1039.7L628.084 1040.19C624.464 1040.9 620.832 1041.56 617.186 1042.18L617.102 1041.69C613.46 1042.32 609.805 1042.9 606.138 1043.45L606.212 1043.95C602.564 1044.49 598.903 1045 595.23 1045.47L595.167 1044.97C591.507 1045.44 587.835 1045.87 584.152 1046.27L584.205 1046.76C580.53 1047.16 576.844 1047.51 573.147 1047.83L573.104 1047.33C569.434 1047.64 565.754 1047.92 562.063 1048.15L562.095 1048.65C558.4 1048.89 554.695 1049.09 550.981 1049.25L550.959 1048.75C547.285 1048.91 543.6 1049.03 539.907 1049.11L539.918 1049.61Z" stroke="#EBB4B4" stroke-opacity="0.4" stroke-dasharray="11 11"/>
<path d="M555.926 1049.52C552.203 1049.71 548.462 1049.82 544.704 1049.86L544.698 1049.36C542.826 1049.38 540.95 1049.38 539.07 1049.36C537.189 1049.34 535.313 1049.31 533.442 1049.25L533.428 1049.75C529.671 1049.65 525.932 1049.47 522.213 1049.22L522.247 1048.72C518.503 1048.46 514.778 1048.14 511.076 1047.74L511.023 1048.24C507.282 1047.84 503.562 1047.37 499.867 1046.83L499.939 1046.33C496.227 1045.79 492.538 1045.17 488.875 1044.48L488.782 1044.97C485.091 1044.28 481.425 1043.52 477.785 1042.68L477.897 1042.2C474.244 1041.36 470.618 1040.46 467.021 1039.48L466.89 1039.96C463.265 1038.98 459.668 1037.93 456.102 1036.81L456.252 1036.33C452.676 1035.21 449.13 1034.02 445.616 1032.76L445.448 1033.23C441.914 1031.96 438.414 1030.63 434.947 1029.23L435.134 1028.76C431.662 1027.36 428.223 1025.89 424.82 1024.36L424.615 1024.81C421.196 1023.27 417.812 1021.67 414.467 1020L414.69 1019.55C411.34 1017.88 408.027 1016.14 404.754 1014.34L404.513 1014.78C401.226 1012.97 397.979 1011.11 394.772 1009.18L395.03 1008.75C391.824 1006.82 388.658 1004.82 385.536 1002.77L385.261 1003.19C382.128 1001.13 379.039 999.015 375.993 996.839L376.284 996.432C373.24 994.257 370.241 992.023 367.288 989.733L366.982 990.128C364.021 987.831 361.106 985.478 358.239 983.069L358.561 982.686C355.697 980.28 352.881 977.818 350.115 975.303L349.779 975.673C347.007 973.153 344.285 970.579 341.614 967.953L341.965 967.596C339.298 964.975 336.683 962.301 334.121 959.577L333.757 959.92C331.191 957.192 328.678 954.414 326.219 951.586L326.597 951.258C324.143 948.437 321.745 945.568 319.402 942.651L319.012 942.965C316.667 940.046 314.378 937.08 312.147 934.069L312.549 933.771C310.324 930.769 308.157 927.721 306.049 924.63L305.636 924.912C303.527 921.82 301.477 918.685 299.487 915.508L299.911 915.242C297.928 912.076 296.006 908.868 294.145 905.62L293.711 905.869C291.851 902.622 290.052 899.335 288.317 896.01L288.76 895.778C287.032 892.467 285.367 889.118 283.766 885.732L283.314 885.946C281.716 882.566 280.182 879.149 278.713 875.698L279.173 875.502C277.712 872.068 276.316 868.6 274.986 865.099L274.519 865.276C273.192 861.781 271.931 858.253 270.738 854.695L271.212 854.536C270.026 850.997 268.907 847.428 267.856 843.829L267.376 843.969C266.329 840.381 265.35 836.763 264.44 833.119L264.926 832.998C264.023 829.382 263.19 825.738 262.426 822.07L261.937 822.172C261.176 818.517 260.485 814.836 259.865 811.132L260.359 811.049C259.743 807.373 259.198 803.673 258.724 799.951L258.228 800.014C257.756 796.308 257.355 792.581 257.026 788.833L257.524 788.789C257.199 785.079 256.944 781.349 256.761 777.601L256.262 777.625C256.08 773.902 255.97 770.161 255.932 766.403L256.432 766.398C256.413 764.526 256.412 762.65 256.429 760.769C256.446 758.889 256.481 757.013 256.534 755.141L256.034 755.127C256.141 751.37 256.319 747.632 256.569 743.913L257.067 743.946C257.318 740.202 257.641 736.477 258.034 732.774L257.537 732.721C257.934 728.98 258.403 725.26 258.942 721.564L259.436 721.636C259.978 717.923 260.59 714.234 261.272 710.569L260.781 710.478C261.468 706.785 262.226 703.118 263.053 699.477L263.54 699.588C264.37 695.934 265.27 692.306 266.238 688.707L265.755 688.578C266.731 684.95 267.776 681.351 268.888 677.782L269.365 677.931C270.481 674.352 271.665 670.804 272.915 667.287L272.444 667.119C273.702 663.583 275.027 660.079 276.417 656.609L276.881 656.795C278.274 653.318 279.733 649.876 281.257 646.469L280.8 646.265C282.331 642.841 283.927 639.453 285.587 636.102L286.035 636.324C287.697 632.968 289.423 629.65 291.211 626.371L290.772 626.131C292.567 622.838 294.426 619.584 296.345 616.372L296.774 616.628C298.693 613.415 300.674 610.242 302.714 607.113L302.295 606.839C304.342 603.699 306.449 600.602 308.614 597.549L309.021 597.838C311.186 594.786 313.408 591.778 315.687 588.817L315.29 588.512C317.576 585.542 319.918 582.618 322.316 579.742L322.7 580.063C325.095 577.189 327.546 574.364 330.05 571.588L329.679 571.253C332.188 568.471 334.752 565.739 337.367 563.058L337.725 563.407C340.336 560.73 342.999 558.105 345.713 555.532L345.369 555.169C348.087 552.592 350.855 550.068 353.673 547.599L354.002 547.975C356.814 545.511 359.674 543.101 362.581 540.747L362.266 540.358C365.176 538.002 368.133 535.702 371.136 533.459L371.435 533.86C374.429 531.624 377.468 529.445 380.551 527.326L380.268 526.914C383.352 524.793 386.48 522.732 389.65 520.731L389.917 521.154C393.076 519.159 396.277 517.226 399.518 515.354L399.268 514.921C402.509 513.049 405.79 511.239 409.109 509.493L409.342 509.936C412.648 508.197 415.991 506.521 419.371 504.91L419.156 504.459C422.532 502.85 425.944 501.305 429.39 499.827L429.587 500.286C433.017 498.815 436.482 497.409 439.979 496.07L439.801 495.603C443.293 494.266 446.817 492.997 450.372 491.795L450.533 492.269C454.069 491.074 457.635 489.946 461.232 488.888L461.09 488.408C464.676 487.353 468.291 486.367 471.934 485.45L472.056 485.935C475.67 485.026 479.312 484.186 482.979 483.416L482.877 482.927C486.531 482.16 490.21 481.464 493.914 480.839L493.997 481.332C497.673 480.711 501.372 480.161 505.093 479.684L505.03 479.188C508.735 478.712 512.462 478.308 516.21 477.976L516.254 478.474C519.963 478.146 523.693 477.888 527.441 477.704L527.416 477.205C531.139 477.021 534.88 476.91 538.638 476.871L538.644 477.371C540.516 477.352 542.392 477.351 544.272 477.368C546.153 477.385 548.029 477.42 549.9 477.473L549.914 476.974C553.671 477.081 557.41 477.26 561.129 477.511L561.095 478.01C564.839 478.263 568.564 478.588 572.266 478.983L572.319 478.486C576.06 478.886 579.78 479.358 583.475 479.901L583.403 480.396C587.115 480.941 590.804 481.558 594.467 482.246L594.56 481.754C598.251 482.446 601.917 483.21 605.557 484.043L605.445 484.53C609.098 485.366 612.724 486.272 616.321 487.247L616.452 486.765C620.077 487.747 623.674 488.799 627.24 489.92L627.09 490.397C630.666 491.52 634.212 492.712 637.726 493.971L637.894 493.501C641.427 494.767 644.928 496.101 648.395 497.501L648.208 497.964C651.68 499.366 655.119 500.835 658.522 502.369L658.727 501.913C662.146 503.454 665.529 505.06 668.875 506.73L668.652 507.178C672.002 508.85 675.315 510.586 678.588 512.385L678.829 511.947C682.116 513.753 685.363 515.622 688.57 517.552L688.312 517.981C691.518 519.911 694.684 521.903 697.806 523.954L698.081 523.536C701.214 525.594 704.303 527.712 707.349 529.889L707.058 530.296C710.102 532.471 713.101 534.704 716.054 536.995L716.36 536.6C719.321 538.896 722.236 541.25 725.103 543.659L724.781 544.041C727.645 546.448 730.461 548.909 733.227 551.424L733.563 551.055C736.335 553.575 739.057 556.149 741.728 558.775L741.377 559.131C744.044 561.753 746.659 564.426 749.221 567.15L749.585 566.808C752.151 569.536 754.664 572.314 757.123 575.141L756.745 575.469C759.199 578.29 761.597 581.16 763.94 584.076L764.33 583.763C766.675 586.682 768.964 589.648 771.195 592.659L770.793 592.957C773.018 595.959 775.185 599.006 777.293 602.097L777.706 601.815C779.815 604.907 781.865 608.043 783.855 611.22L783.431 611.485C785.414 614.651 787.336 617.859 789.197 621.107L789.631 620.858C791.491 624.106 793.29 627.393 795.025 630.718L794.582 630.949C796.31 634.26 797.975 637.61 799.576 640.995L800.028 640.781C801.626 644.162 803.16 647.578 804.629 651.029L804.169 651.225C805.63 654.659 807.026 658.128 808.356 661.629L808.823 661.451C810.15 664.946 811.411 668.474 812.604 672.033L812.13 672.192C813.316 675.73 814.435 679.3 815.486 682.898L815.966 682.758C817.013 686.347 817.992 689.964 818.902 693.609L818.416 693.73C819.319 697.346 820.152 700.989 820.916 704.658L821.405 704.556C822.166 708.211 822.857 711.891 823.477 715.596L822.983 715.678C823.599 719.355 824.144 723.055 824.618 726.777L825.114 726.714C825.586 730.419 825.987 734.147 826.316 737.895L825.818 737.938C826.143 741.648 826.398 745.378 826.581 749.127L827.08 749.102C827.262 752.825 827.372 756.566 827.41 760.324L826.91 760.329C826.929 762.201 826.93 764.078 826.913 765.958C826.896 767.839 826.861 769.715 826.808 771.586L827.308 771.6C827.201 775.357 827.023 779.096 826.773 782.815L826.275 782.781C826.024 786.526 825.701 790.25 825.308 793.954L825.805 794.006C825.408 797.748 824.939 801.467 824.4 805.164L823.906 805.092C823.364 808.804 822.752 812.494 822.07 816.158L822.561 816.25C821.874 819.942 821.116 823.61 820.289 827.25L819.802 827.14C818.972 830.794 818.072 834.421 817.104 838.02L817.587 838.15C816.611 841.778 815.566 845.377 814.454 848.945L813.977 848.797C812.861 852.375 811.677 855.924 810.427 859.441L810.898 859.608C809.64 863.144 808.315 866.649 806.925 870.119L806.461 869.933C805.068 873.409 803.609 876.852 802.085 880.259L802.542 880.463C801.011 883.887 799.415 887.275 797.755 890.625L797.307 890.403C795.645 893.759 793.919 897.078 792.131 900.357L792.57 900.596C790.775 903.889 788.916 907.143 786.997 910.356L786.568 910.099C784.649 913.313 782.668 916.485 780.628 919.615L781.047 919.888C779 923.028 776.893 926.126 774.728 929.179L774.321 928.89C772.157 931.942 769.934 934.949 767.655 937.911L768.052 938.215C765.766 941.186 763.424 944.109 761.026 946.985L760.642 946.665C758.247 949.538 755.796 952.364 753.292 955.14L753.663 955.474C751.153 958.256 748.59 960.989 745.975 963.669L745.617 963.32C743.006 965.997 740.343 968.623 737.629 971.195L737.973 971.558C735.255 974.135 732.487 976.659 729.669 979.128L729.34 978.752C726.528 981.217 723.668 983.627 720.761 985.981L721.076 986.369C718.166 988.726 715.209 991.026 712.206 993.268L711.907 992.867C708.913 995.104 705.874 997.282 702.791 999.402L703.074 999.814C699.99 1001.93 696.862 1004 693.692 1006L693.425 1005.57C690.266 1007.57 687.065 1009.5 683.824 1011.37L684.074 1011.81C680.833 1013.68 677.552 1015.49 674.233 1017.23L674 1016.79C670.694 1018.53 667.351 1020.21 663.971 1021.82L664.186 1022.27C660.81 1023.88 657.398 1025.42 653.952 1026.9L653.755 1026.44C650.325 1027.91 646.86 1029.32 643.363 1030.66L643.541 1031.12C640.05 1032.46 636.525 1033.73 632.97 1034.93L632.809 1034.46C629.273 1035.65 625.707 1036.78 622.11 1037.84L622.252 1038.32C618.666 1039.37 615.051 1040.36 611.408 1041.28L611.286 1040.79C607.672 1041.7 604.03 1042.54 600.363 1043.31L600.465 1043.8C596.811 1044.57 593.132 1045.26 589.428 1045.89L589.345 1045.4C585.669 1046.02 581.97 1046.57 578.249 1047.04L578.312 1047.54C574.607 1048.02 570.88 1048.42 567.132 1048.75L567.088 1048.25C563.379 1048.58 559.649 1048.84 555.901 1049.02L555.926 1049.52Z" stroke="#EBB4B4" stroke-opacity="0.4" stroke-dasharray="11 11"/>
<path d="M555.926 1049.52C552.203 1049.71 548.462 1049.82 544.704 1049.86L544.698 1049.36C542.826 1049.38 540.95 1049.38 539.07 1049.36C537.189 1049.34 535.313 1049.31 533.442 1049.25L533.428 1049.75C529.671 1049.65 525.932 1049.47 522.213 1049.22L522.247 1048.72C518.503 1048.46 514.778 1048.14 511.076 1047.74L511.023 1048.24C507.282 1047.84 503.562 1047.37 499.867 1046.83L499.939 1046.33C496.227 1045.79 492.538 1045.17 488.875 1044.48L488.782 1044.97C485.091 1044.28 481.425 1043.52 477.785 1042.68L477.897 1042.2C474.244 1041.36 470.618 1040.46 467.021 1039.48L466.89 1039.96C463.265 1038.98 459.668 1037.93 456.102 1036.81L456.252 1036.33C452.676 1035.21 449.13 1034.02 445.616 1032.76L445.448 1033.23C441.914 1031.96 438.414 1030.63 434.947 1029.23L435.134 1028.76C431.662 1027.36 428.223 1025.89 424.82 1024.36L424.615 1024.81C421.196 1023.27 417.812 1021.67 414.467 1020L414.69 1019.55C411.34 1017.88 408.027 1016.14 404.754 1014.34L404.513 1014.78C401.226 1012.97 397.979 1011.11 394.772 1009.18L395.03 1008.75C391.824 1006.82 388.658 1004.82 385.536 1002.77L385.261 1003.19C382.128 1001.13 379.039 999.015 375.993 996.839L376.284 996.432C373.24 994.257 370.241 992.023 367.288 989.733L366.982 990.128C364.021 987.831 361.106 985.478 358.239 983.069L358.561 982.686C355.697 980.28 352.881 977.818 350.115 975.303L349.779 975.673C347.007 973.153 344.285 970.579 341.614 967.953L341.965 967.596C339.298 964.975 336.683 962.301 334.121 959.577L333.757 959.92C331.191 957.192 328.678 954.414 326.219 951.586L326.597 951.258C324.143 948.437 321.745 945.568 319.402 942.651L319.012 942.965C316.667 940.046 314.378 937.08 312.147 934.069L312.549 933.771C310.324 930.769 308.157 927.721 306.049 924.63L305.636 924.912C303.527 921.82 301.477 918.685 299.487 915.508L299.911 915.242C297.928 912.076 296.006 908.868 294.145 905.62L293.711 905.869C291.851 902.622 290.052 899.335 288.317 896.01L288.76 895.778C287.032 892.467 285.367 889.118 283.766 885.732L283.314 885.946C281.716 882.566 280.182 879.149 278.713 875.698L279.173 875.502C277.712 872.068 276.316 868.6 274.986 865.099L274.519 865.276C273.192 861.781 271.931 858.253 270.738 854.695L271.212 854.536C270.026 850.997 268.907 847.428 267.856 843.829L267.376 843.969C266.329 840.381 265.35 836.763 264.44 833.119L264.926 832.998C264.023 829.382 263.19 825.738 262.426 822.07L261.937 822.172C261.176 818.517 260.485 814.836 259.865 811.132L260.359 811.049C259.743 807.373 259.198 803.673 258.724 799.951L258.228 800.014C257.756 796.308 257.355 792.581 257.026 788.833L257.524 788.789C257.199 785.079 256.944 781.349 256.761 777.601L256.262 777.625C256.08 773.902 255.97 770.161 255.932 766.403L256.432 766.398C256.413 764.526 256.412 762.65 256.429 760.769C256.446 758.889 256.481 757.013 256.534 755.141L256.034 755.127C256.141 751.37 256.319 747.632 256.569 743.913L257.067 743.946C257.318 740.202 257.641 736.477 258.034 732.774L257.537 732.721C257.934 728.98 258.403 725.26 258.942 721.564L259.436 721.636C259.978 717.923 260.59 714.234 261.272 710.569L260.781 710.478C261.468 706.785 262.226 703.118 263.053 699.477L263.54 699.588C264.37 695.934 265.27 692.306 266.238 688.707L265.755 688.578C266.731 684.95 267.776 681.351 268.888 677.782L269.365 677.931C270.481 674.352 271.665 670.804 272.915 667.287L272.444 667.119C273.702 663.583 275.027 660.079 276.417 656.609L276.881 656.795C278.274 653.318 279.733 649.876 281.257 646.469L280.8 646.265C282.331 642.841 283.927 639.453 285.587 636.102L286.035 636.324C287.697 632.968 289.423 629.65 291.211 626.371L290.772 626.131C292.567 622.838 294.426 619.584 296.345 616.372L296.774 616.628C298.693 613.415 300.674 610.242 302.714 607.113L302.295 606.839C304.342 603.699 306.449 600.602 308.614 597.549L309.021 597.838C311.186 594.786 313.408 591.778 315.687 588.817L315.29 588.512C317.576 585.542 319.918 582.618 322.316 579.742L322.7 580.063C325.095 577.189 327.546 574.364 330.05 571.588L329.679 571.253C332.188 568.471 334.752 565.739 337.367 563.058L337.725 563.407C340.336 560.73 342.999 558.105 345.713 555.532L345.369 555.169C348.087 552.592 350.855 550.068 353.673 547.599L354.002 547.975C356.814 545.511 359.674 543.101 362.581 540.747L362.266 540.358C365.176 538.002 368.133 535.702 371.136 533.459L371.435 533.86C374.429 531.624 377.468 529.445 380.551 527.326L380.268 526.914C383.352 524.793 386.48 522.732 389.65 520.731L389.917 521.154C393.076 519.159 396.277 517.226 399.518 515.354L399.268 514.921C402.509 513.049 405.79 511.239 409.109 509.493L409.342 509.936C412.648 508.197 415.991 506.521 419.371 504.91L419.156 504.459C422.532 502.85 425.944 501.305 429.39 499.827L429.587 500.286C433.017 498.815 436.482 497.409 439.979 496.07L439.801 495.603C443.293 494.266 446.817 492.997 450.372 491.795L450.533 492.269C454.069 491.074 457.635 489.946 461.232 488.888L461.09 488.408C464.676 487.353 468.291 486.367 471.934 485.45L472.056 485.935C475.67 485.026 479.312 484.186 482.979 483.416L482.877 482.927C486.531 482.16 490.21 481.464 493.914 480.839L493.997 481.332C497.673 480.711 501.372 480.161 505.093 479.684L505.03 479.188C508.735 478.712 512.462 478.308 516.21 477.976L516.254 478.474C519.963 478.146 523.693 477.888 527.441 477.704L527.416 477.205C531.139 477.021 534.88 476.91 538.638 476.871L538.644 477.371C540.516 477.352 542.392 477.351 544.272 477.368C546.153 477.385 548.029 477.42 549.9 477.473L549.914 476.974C553.671 477.081 557.41 477.26 561.129 477.511L561.095 478.01C564.839 478.263 568.564 478.588 572.266 478.983L572.319 478.486C576.06 478.886 579.78 479.358 583.475 479.901L583.403 480.396C587.115 480.941 590.804 481.558 594.467 482.246L594.56 481.754C598.251 482.446 601.917 483.21 605.557 484.043L605.445 484.53C609.098 485.366 612.724 486.272 616.321 487.247L616.452 486.765C620.077 487.747 623.674 488.799 627.24 489.92L627.09 490.397C630.666 491.52 634.212 492.712 637.726 493.971L637.894 493.501C641.427 494.767 644.928 496.101 648.395 497.501L648.208 497.964C651.68 499.366 655.119 500.835 658.522 502.369L658.727 501.913C662.146 503.454 665.529 505.06 668.875 506.73L668.652 507.178C672.002 508.85 675.315 510.586 678.588 512.385L678.829 511.947C682.116 513.753 685.363 515.622 688.57 517.552L688.312 517.981C691.518 519.911 694.684 521.903 697.806 523.954L698.081 523.536C701.214 525.594 704.303 527.712 707.349 529.889L707.058 530.296C710.102 532.471 713.101 534.704 716.054 536.995L716.36 536.6C719.321 538.896 722.236 541.25 725.103 543.659L724.781 544.041C727.645 546.448 730.461 548.909 733.227 551.424L733.563 551.055C736.335 553.575 739.057 556.149 741.728 558.775L741.377 559.131C744.044 561.753 746.659 564.426 749.221 567.15L749.585 566.808C752.151 569.536 754.664 572.314 757.123 575.141L756.745 575.469C759.199 578.29 761.597 581.16 763.94 584.076L764.33 583.763C766.675 586.682 768.964 589.648 771.195 592.659L770.793 592.957C773.018 595.959 775.185 599.006 777.293 602.097L777.706 601.815C779.815 604.907 781.865 608.043 783.855 611.22L783.431 611.485C785.414 614.651 787.336 617.859 789.197 621.107L789.631 620.858C791.491 624.106 793.29 627.393 795.025 630.718L794.582 630.949C796.31 634.26 797.975 637.61 799.576 640.995L800.028 640.781C801.626 644.162 803.16 647.578 804.629 651.029L804.169 651.225C805.63 654.659 807.026 658.128 808.356 661.629L808.823 661.451C810.15 664.946 811.411 668.474 812.604 672.033L812.13 672.192C813.316 675.73 814.435 679.3 815.486 682.898L815.966 682.758C817.013 686.347 817.992 689.964 818.902 693.609L818.416 693.73C819.319 697.346 820.152 700.989 820.916 704.658L821.405 704.556C822.166 708.211 822.857 711.891 823.477 715.596L822.983 715.678C823.599 719.355 824.144 723.055 824.618 726.777L825.114 726.714C825.586 730.419 825.987 734.147 826.316 737.895L825.818 737.938C826.143 741.648 826.398 745.378 826.581 749.127L827.08 749.102C827.262 752.825 827.372 756.566 827.41 760.324L826.91 760.329C826.929 762.201 826.93 764.078 826.913 765.958C826.896 767.839 826.861 769.715 826.808 771.586L827.308 771.6C827.201 775.357 827.023 779.096 826.773 782.815L826.275 782.781C826.024 786.526 825.701 790.25 825.308 793.954L825.805 794.006C825.408 797.748 824.939 801.467 824.4 805.164L823.906 805.092C823.364 808.804 822.752 812.494 822.07 816.158L822.561 816.25C821.874 819.942 821.116 823.61 820.289 827.25L819.802 827.14C818.972 830.794 818.072 834.421 817.104 838.02L817.587 838.15C816.611 841.778 815.566 845.377 814.454 848.945L813.977 848.797C812.861 852.375 811.677 855.924 810.427 859.441L810.898 859.608C809.64 863.144 808.315 866.649 806.925 870.119L806.461 869.933C805.068 873.409 803.609 876.852 802.085 880.259L802.542 880.463C801.011 883.887 799.415 887.275 797.755 890.625L797.307 890.403C795.645 893.759 793.919 897.078 792.131 900.357L792.57 900.596C790.775 903.889 788.916 907.143 786.997 910.356L786.568 910.099C784.649 913.313 782.668 916.485 780.628 919.615L781.047 919.888C779 923.028 776.893 926.126 774.728 929.179L774.321 928.89C772.157 931.942 769.934 934.949 767.655 937.911L768.052 938.215C765.766 941.186 763.424 944.109 761.026 946.985L760.642 946.665C758.247 949.538 755.796 952.364 753.292 955.14L753.663 955.474C751.153 958.256 748.59 960.989 745.975 963.669L745.617 963.32C743.006 965.997 740.343 968.623 737.629 971.195L737.973 971.558C735.255 974.135 732.487 976.659 729.669 979.128L729.34 978.752C726.528 981.217 723.668 983.627 720.761 985.981L721.076 986.369C718.166 988.726 715.209 991.026 712.206 993.268L711.907 992.867C708.913 995.104 705.874 997.282 702.791 999.402L703.074 999.814C699.99 1001.93 696.862 1004 693.692 1006L693.425 1005.57C690.266 1007.57 687.065 1009.5 683.824 1011.37L684.074 1011.81C680.833 1013.68 677.552 1015.49 674.233 1017.23L674 1016.79C670.694 1018.53 667.351 1020.21 663.971 1021.82L664.186 1022.27C660.81 1023.88 657.398 1025.42 653.952 1026.9L653.755 1026.44C650.325 1027.91 646.86 1029.32 643.363 1030.66L643.541 1031.12C640.05 1032.46 636.525 1033.73 632.97 1034.93L632.809 1034.46C629.273 1035.65 625.707 1036.78 622.11 1037.84L622.252 1038.32C618.666 1039.37 615.051 1040.36 611.408 1041.28L611.286 1040.79C607.672 1041.7 604.03 1042.54 600.363 1043.31L600.465 1043.8C596.811 1044.57 593.132 1045.26 589.428 1045.89L589.345 1045.4C585.669 1046.02 581.97 1046.57 578.249 1047.04L578.312 1047.54C574.607 1048.02 570.88 1048.42 567.132 1048.75L567.088 1048.25C563.379 1048.58 559.649 1048.84 555.901 1049.02L555.926 1049.52Z" stroke="#EBB4B4" stroke-opacity="0.4" stroke-dasharray="11 11"/>
<path d="M555.926 1049.52C552.203 1049.71 548.462 1049.82 544.704 1049.86L544.698 1049.36C542.826 1049.38 540.95 1049.38 539.07 1049.36C537.189 1049.34 535.313 1049.31 533.442 1049.25L533.428 1049.75C529.671 1049.65 525.932 1049.47 522.213 1049.22L522.247 1048.72C518.503 1048.46 514.778 1048.14 511.076 1047.74L511.023 1048.24C507.282 1047.84 503.562 1047.37 499.867 1046.83L499.939 1046.33C496.227 1045.79 492.538 1045.17 488.875 1044.48L488.782 1044.97C485.091 1044.28 481.425 1043.52 477.785 1042.68L477.897 1042.2C474.244 1041.36 470.618 1040.46 467.021 1039.48L466.89 1039.96C463.265 1038.98 459.668 1037.93 456.102 1036.81L456.252 1036.33C452.676 1035.21 449.13 1034.02 445.616 1032.76L445.448 1033.23C441.914 1031.96 438.414 1030.63 434.947 1029.23L435.134 1028.76C431.662 1027.36 428.223 1025.89 424.82 1024.36L424.615 1024.81C421.196 1023.27 417.812 1021.67 414.467 1020L414.69 1019.55C411.34 1017.88 408.027 1016.14 404.754 1014.34L404.513 1014.78C401.226 1012.97 397.979 1011.11 394.772 1009.18L395.03 1008.75C391.824 1006.82 388.658 1004.82 385.536 1002.77L385.261 1003.19C382.128 1001.13 379.039 999.015 375.993 996.839L376.284 996.432C373.24 994.257 370.241 992.023 367.288 989.733L366.982 990.128C364.021 987.831 361.106 985.478 358.239 983.069L358.561 982.686C355.697 980.28 352.881 977.818 350.115 975.303L349.779 975.673C347.007 973.153 344.285 970.579 341.614 967.953L341.965 967.596C339.298 964.975 336.683 962.301 334.121 959.577L333.757 959.92C331.191 957.192 328.678 954.414 326.219 951.586L326.597 951.258C324.143 948.437 321.745 945.568 319.402 942.651L319.012 942.965C316.667 940.046 314.378 937.08 312.147 934.069L312.549 933.771C310.324 930.769 308.157 927.721 306.049 924.63L305.636 924.912C303.527 921.82 301.477 918.685 299.487 915.508L299.911 915.242C297.928 912.076 296.006 908.868 294.145 905.62L293.711 905.869C291.851 902.622 290.052 899.335 288.317 896.01L288.76 895.778C287.032 892.467 285.367 889.118 283.766 885.732L283.314 885.946C281.716 882.566 280.182 879.149 278.713 875.698L279.173 875.502C277.712 872.068 276.316 868.6 274.986 865.099L274.519 865.276C273.192 861.781 271.931 858.253 270.738 854.695L271.212 854.536C270.026 850.997 268.907 847.428 267.856 843.829L267.376 843.969C266.329 840.381 265.35 836.763 264.44 833.119L264.926 832.998C264.023 829.382 263.19 825.738 262.426 822.07L261.937 822.172C261.176 818.517 260.485 814.836 259.865 811.132L260.359 811.049C259.743 807.373 259.198 803.673 258.724 799.951L258.228 800.014C257.756 796.308 257.355 792.581 257.026 788.833L257.524 788.789C257.199 785.079 256.944 781.349 256.761 777.601L256.262 777.625C256.08 773.902 255.97 770.161 255.932 766.403L256.432 766.398C256.413 764.526 256.412 762.65 256.429 760.769C256.446 758.889 256.481 757.013 256.534 755.141L256.034 755.127C256.141 751.37 256.319 747.632 256.569 743.913L257.067 743.946C257.318 740.202 257.641 736.477 258.034 732.774L257.537 732.721C257.934 728.98 258.403 725.26 258.942 721.564L259.436 721.636C259.978 717.923 260.59 714.234 261.272 710.569L260.781 710.478C261.468 706.785 262.226 703.118 263.053 699.477L263.54 699.588C264.37 695.934 265.27 692.306 266.238 688.707L265.755 688.578C266.731 684.95 267.776 681.351 268.888 677.782L269.365 677.931C270.481 674.352 271.665 670.804 272.915 667.287L272.444 667.119C273.702 663.583 275.027 660.079 276.417 656.609L276.881 656.795C278.274 653.318 279.733 649.876 281.257 646.469L280.8 646.265C282.331 642.841 283.927 639.453 285.587 636.102L286.035 636.324C287.697 632.968 289.423 629.65 291.211 626.371L290.772 626.131C292.567 622.838 294.426 619.584 296.345 616.372L296.774 616.628C298.693 613.415 300.674 610.242 302.714 607.113L302.295 606.839C304.342 603.699 306.449 600.602 308.614 597.549L309.021 597.838C311.186 594.786 313.408 591.778 315.687 588.817L315.29 588.512C317.576 585.542 319.918 582.618 322.316 579.742L322.7 580.063C325.095 577.189 327.546 574.364 330.05 571.588L329.679 571.253C332.188 568.471 334.752 565.739 337.367 563.058L337.725 563.407C340.336 560.73 342.999 558.105 345.713 555.532L345.369 555.169C348.087 552.592 350.855 550.068 353.673 547.599L354.002 547.975C356.814 545.511 359.674 543.101 362.581 540.747L362.266 540.358C365.176 538.002 368.133 535.702 371.136 533.459L371.435 533.86C374.429 531.624 377.468 529.445 380.551 527.326L380.268 526.914C383.352 524.793 386.48 522.732 389.65 520.731L389.917 521.154C393.076 519.159 396.277 517.226 399.518 515.354L399.268 514.921C402.509 513.049 405.79 511.239 409.109 509.493L409.342 509.936C412.648 508.197 415.991 506.521 419.371 504.91L419.156 504.459C422.532 502.85 425.944 501.305 429.39 499.827L429.587 500.286C433.017 498.815 436.482 497.409 439.979 496.07L439.801 495.603C443.293 494.266 446.817 492.997 450.372 491.795L450.533 492.269C454.069 491.074 457.635 489.946 461.232 488.888L461.09 488.408C464.676 487.353 468.291 486.367 471.934 485.45L472.056 485.935C475.67 485.026 479.312 484.186 482.979 483.416L482.877 482.927C486.531 482.16 490.21 481.464 493.914 480.839L493.997 481.332C497.673 480.711 501.372 480.161 505.093 479.684L505.03 479.188C508.735 478.712 512.462 478.308 516.21 477.976L516.254 478.474C519.963 478.146 523.693 477.888 527.441 477.704L527.416 477.205C531.139 477.021 534.88 476.91 538.638 476.871L538.644 477.371C540.516 477.352 542.392 477.351 544.272 477.368C546.153 477.385 548.029 477.42 549.9 477.473L549.914 476.974C553.671 477.081 557.41 477.26 561.129 477.511L561.095 478.01C564.839 478.263 568.564 478.588 572.266 478.983L572.319 478.486C576.06 478.886 579.78 479.358 583.475 479.901L583.403 480.396C587.115 480.941 590.804 481.558 594.467 482.246L594.56 481.754C598.251 482.446 601.917 483.21 605.557 484.043L605.445 484.53C609.098 485.366 612.724 486.272 616.321 487.247L616.452 486.765C620.077 487.747 623.674 488.799 627.24 489.92L627.09 490.397C630.666 491.52 634.212 492.712 637.726 493.971L637.894 493.501C641.427 494.767 644.928 496.101 648.395 497.501L648.208 497.964C651.68 499.366 655.119 500.835 658.522 502.369L658.727 501.913C662.146 503.454 665.529 505.06 668.875 506.73L668.652 507.178C672.002 508.85 675.315 510.586 678.588 512.385L678.829 511.947C682.116 513.753 685.363 515.622 688.57 517.552L688.312 517.981C691.518 519.911 694.684 521.903 697.806 523.954L698.081 523.536C701.214 525.594 704.303 527.712 707.349 529.889L707.058 530.296C710.102 532.471 713.101 534.704 716.054 536.995L716.36 536.6C719.321 538.896 722.236 541.25 725.103 543.659L724.781 544.041C727.645 546.448 730.461 548.909 733.227 551.424L733.563 551.055C736.335 553.575 739.057 556.149 741.728 558.775L741.377 559.131C744.044 561.753 746.659 564.426 749.221 567.15L749.585 566.808C752.151 569.536 754.664 572.314 757.123 575.141L756.745 575.469C759.199 578.29 761.597 581.16 763.94 584.076L764.33 583.763C766.675 586.682 768.964 589.648 771.195 592.659L770.793 592.957C773.018 595.959 775.185 599.006 777.293 602.097L777.706 601.815C779.815 604.907 781.865 608.043 783.855 611.22L783.431 611.485C785.414 614.651 787.336 617.859 789.197 621.107L789.631 620.858C791.491 624.106 793.29 627.393 795.025 630.718L794.582 630.949C796.31 634.26 797.975 637.61 799.576 640.995L800.028 640.781C801.626 644.162 803.16 647.578 804.629 651.029L804.169 651.225C805.63 654.659 807.026 658.128 808.356 661.629L808.823 661.451C810.15 664.946 811.411 668.474 812.604 672.033L812.13 672.192C813.316 675.73 814.435 679.3 815.486 682.898L815.966 682.758C817.013 686.347 817.992 689.964 818.902 693.609L818.416 693.73C819.319 697.346 820.152 700.989 820.916 704.658L821.405 704.556C822.166 708.211 822.857 711.891 823.477 715.596L822.983 715.678C823.599 719.355 824.144 723.055 824.618 726.777L825.114 726.714C825.586 730.419 825.987 734.147 826.316 737.895L825.818 737.938C826.143 741.648 826.398 745.378 826.581 749.127L827.08 749.102C827.262 752.825 827.372 756.566 827.41 760.324L826.91 760.329C826.929 762.201 826.93 764.078 826.913 765.958C826.896 767.839 826.861 769.715 826.808 771.586L827.308 771.6C827.201 775.357 827.023 779.096 826.773 782.815L826.275 782.781C826.024 786.526 825.701 790.25 825.308 793.954L825.805 794.006C825.408 797.748 824.939 801.467 824.4 805.164L823.906 805.092C823.364 808.804 822.752 812.494 822.07 816.158L822.561 816.25C821.874 819.942 821.116 823.61 820.289 827.25L819.802 827.14C818.972 830.794 818.072 834.421 817.104 838.02L817.587 838.15C816.611 841.778 815.566 845.377 814.454 848.945L813.977 848.797C812.861 852.375 811.677 855.924 810.427 859.441L810.898 859.608C809.64 863.144 808.315 866.649 806.925 870.119L806.461 869.933C805.068 873.409 803.609 876.852 802.085 880.259L802.542 880.463C801.011 883.887 799.415 887.275 797.755 890.625L797.307 890.403C795.645 893.759 793.919 897.078 792.131 900.357L792.57 900.596C790.775 903.889 788.916 907.143 786.997 910.356L786.568 910.099C784.649 913.313 782.668 916.485 780.628 919.615L781.047 919.888C779 923.028 776.893 926.126 774.728 929.179L774.321 928.89C772.157 931.942 769.934 934.949 767.655 937.911L768.052 938.215C765.766 941.186 763.424 944.109 761.026 946.985L760.642 946.665C758.247 949.538 755.796 952.364 753.292 955.14L753.663 955.474C751.153 958.256 748.59 960.989 745.975 963.669L745.617 963.32C743.006 965.997 740.343 968.623 737.629 971.195L737.973 971.558C735.255 974.135 732.487 976.659 729.669 979.128L729.34 978.752C726.528 981.217 723.668 983.627 720.761 985.981L721.076 986.369C718.166 988.726 715.209 991.026 712.206 993.268L711.907 992.867C708.913 995.104 705.874 997.282 702.791 999.402L703.074 999.814C699.99 1001.93 696.862 1004 693.692 1006L693.425 1005.57C690.266 1007.57 687.065 1009.5 683.824 1011.37L684.074 1011.81C680.833 1013.68 677.552 1015.49 674.233 1017.23L674 1016.79C670.694 1018.53 667.351 1020.21 663.971 1021.82L664.186 1022.27C660.81 1023.88 657.398 1025.42 653.952 1026.9L653.755 1026.44C650.325 1027.91 646.86 1029.32 643.363 1030.66L643.541 1031.12C640.05 1032.46 636.525 1033.73 632.97 1034.93L632.809 1034.46C629.273 1035.65 625.707 1036.78 622.11 1037.84L622.252 1038.32C618.666 1039.37 615.051 1040.36 611.408 1041.28L611.286 1040.79C607.672 1041.7 604.03 1042.54 600.363 1043.31L600.465 1043.8C596.811 1044.57 593.132 1045.26 589.428 1045.89L589.345 1045.4C585.669 1046.02 581.97 1046.57 578.249 1047.04L578.312 1047.54C574.607 1048.02 570.88 1048.42 567.132 1048.75L567.088 1048.25C563.379 1048.58 559.649 1048.84 555.901 1049.02L555.926 1049.52Z" stroke="#EBB4B4" stroke-opacity="0.4" stroke-dasharray="11 11"/>
</svg>
