<svg width="2019" height="101" viewBox="0 0 2019 101" fill="none" xmlns="http://www.w3.org/2000/svg">
<g opacity="0.9">
<g clip-path="url(#clip0_56_3)">
<path d="M21.135 74.7327C20.6217 74.2194 20.6217 73.3866 21.135 72.8733L68.0083 26C68.5216 25.4867 69.3544 25.4867 69.8677 26C70.381 26.5133 70.381 27.346 69.8677 27.8593L22.9943 74.7327C22.481 75.246 21.6483 75.246 21.135 74.7327Z" fill="#FBECE6"/>
<path d="M78.6437 49.0498H12.3566C11.63 49.0498 11.041 49.6384 11.041 50.3645C11.041 51.0905 11.63 51.6791 12.3566 51.6791H78.6437C79.3702 51.6791 79.9592 51.0905 79.9592 50.3645C79.9592 49.6384 79.3702 49.0498 78.6437 49.0498Z" fill="#FBECE6"/>
<path d="M21.135 26C21.6483 25.4867 22.481 25.4867 22.9943 26L69.8677 72.8733C70.381 73.3866 70.381 74.2194 69.8677 74.7327C69.3544 75.246 68.5216 75.246 68.0083 74.7327L21.135 27.8593C20.6217 27.346 20.6217 26.5133 21.135 26Z" fill="#FBECE6"/>
<path d="M45.5006 15.9062C46.2275 15.9062 46.8162 16.4949 46.8162 17.2218V83.5107C46.8162 84.2376 46.2275 84.8263 45.5006 84.8263C44.7737 84.8263 44.1851 84.2376 44.1851 83.5107V17.2218C44.1851 16.4949 44.7737 15.9062 45.5006 15.9062Z" fill="#FBECE6"/>
<path d="M69.8677 26C70.381 26.5133 70.381 27.346 69.8677 27.8593L22.9943 74.7327C22.481 75.246 21.6483 75.246 21.135 74.7327C20.6217 74.2194 20.6217 73.3866 21.135 72.8733L68.0083 26C68.5216 25.4867 69.3544 25.4867 69.8677 26Z" fill="#FBECE6"/>
<path d="M78.6437 49.0498H12.3566C11.63 49.0498 11.041 49.6384 11.041 50.3645C11.041 51.0905 11.63 51.6791 12.3566 51.6791H78.6437C79.3702 51.6791 79.9592 51.0905 79.9592 50.3645C79.9592 49.6384 79.3702 49.0498 78.6437 49.0498Z" fill="#FBECE6"/>
<path d="M69.8677 74.7327C69.3544 75.246 68.5216 75.246 68.0083 74.7327L21.135 27.8593C20.6217 27.346 20.6217 26.5133 21.135 26C21.6483 25.4867 22.481 25.4867 22.9943 26L69.8677 72.8733C70.381 73.3866 70.381 74.2194 69.8677 74.7327Z" fill="#FBECE6"/>
<path d="M45.5006 84.8245C44.7737 84.8245 44.1851 84.2358 44.1851 83.5089V17.2218C44.1851 16.4949 44.7737 15.9062 45.5006 15.9062C46.2275 15.9062 46.8162 16.4949 46.8162 17.2218V83.5107C46.8162 84.2376 46.2275 84.8263 45.5006 84.8263V84.8245Z" fill="#FBECE6"/>
</g>
<g clip-path="url(#clip1_56_3)">
<path d="M33.148 82.5362C32.4703 82.276 32.1316 81.5153 32.3917 80.8376L56.1476 18.9515C56.4077 18.2738 57.1685 17.9351 57.8462 18.1953C58.5239 18.4554 58.8626 19.2162 58.6024 19.8939L34.8466 81.7799C34.5865 82.4576 33.8257 82.7963 33.148 82.5362Z" fill="#FBECE6"/>
<path d="M75.2391 35.6827L14.6828 62.6441C14.019 62.9396 13.7204 63.7169 14.0157 64.3802C14.311 65.0435 15.0885 65.3416 15.7522 65.0461L76.3085 38.0847C76.9722 37.7892 77.2709 37.0119 76.9756 36.3486C76.6803 35.6853 75.9028 35.3872 75.2391 35.6827Z" fill="#FBECE6"/>
<path d="M13.3266 38.0166C13.5868 37.3389 14.3475 37.0002 15.0252 37.2604L76.9113 61.0162C77.589 61.2763 77.9277 62.0371 77.6676 62.7148C77.4074 63.3925 76.6467 63.7312 75.969 63.4711L14.0829 39.7152C13.4052 39.4551 13.0665 38.6943 13.3266 38.0166Z" fill="#FBECE6"/>
<path d="M31.4801 18.8853C32.1442 18.5897 32.9214 18.888 33.217 19.5521L60.1792 80.11C60.4748 80.774 60.1765 81.5512 59.5124 81.8469C58.8484 82.1425 58.0712 81.8442 57.7755 81.1802L30.8134 20.6222C30.5178 19.9582 30.8161 19.181 31.4801 18.8853Z" fill="#FBECE6"/>
<path d="M57.8462 18.1953C58.5239 18.4554 58.8626 19.2162 58.6024 19.8939L34.8466 81.7799C34.5865 82.4576 33.8257 82.7963 33.148 82.5362C32.4703 82.276 32.1316 81.5153 32.3917 80.8376L56.1476 18.9515C56.4077 18.2738 57.1685 17.9351 57.8462 18.1953Z" fill="#FBECE6"/>
<path d="M75.2391 35.6827L14.6828 62.6441C14.019 62.9396 13.7204 63.7169 14.0157 64.3802C14.311 65.0435 15.0885 65.3416 15.7522 65.0461L76.3085 38.0847C76.9722 37.7892 77.2709 37.0119 76.9756 36.3486C76.6803 35.6853 75.9028 35.3872 75.2391 35.6827Z" fill="#FBECE6"/>
<path d="M77.6676 62.7148C77.4074 63.3925 76.6467 63.7312 75.969 63.4711L14.0829 39.7152C13.4052 39.4551 13.0665 38.6943 13.3266 38.0166C13.5868 37.3389 14.3475 37.0002 15.0252 37.2604L76.9113 61.0162C77.589 61.2763 77.9277 62.0371 77.6676 62.7148Z" fill="#FBECE6"/>
<path d="M59.5117 81.8452C58.8477 82.1409 58.0704 81.8425 57.7748 81.1785L30.8134 20.6222C30.5178 19.9582 30.8161 19.181 31.4801 18.8853C32.1442 18.5897 32.9214 18.888 33.217 19.5521L60.1792 80.11C60.4748 80.774 60.1765 81.5512 59.5124 81.8469L59.5117 81.8452Z" fill="#FBECE6"/>
</g>
<path d="M200.268 99.3415H179.924L176.351 88.7226H150.846L146.975 99.3415H126.829L156.304 25.9022H171.091L200.268 99.3415ZM171.389 73.8362L163.846 48.8272L163.549 48.7279L156.006 73.8362H171.389ZM171.587 22.3295L147.075 11.6113L152.136 0L176.053 12.6038H176.152L171.587 22.3295Z" fill="#FBECE6"/>
<path d="M256.381 99.3415H238.418V25.9022H263.228C271.068 25.803 276.924 26.8946 280.794 28.681C288.733 32.353 293.696 40.7886 293.696 50.7128C293.696 64.309 286.153 76.3173 265.114 76.3173H256.381V99.3415ZM256.381 59.8431H264.419C271.962 59.8431 275.733 57.2628 275.733 51.0105C275.733 45.056 272.061 42.3764 263.724 42.3764H256.381V59.8431Z" fill="#FBECE6"/>
<path d="M358.078 99.3415H336.642L319.671 75.6226H319.473V99.3415H301.51V25.9022H325.527C333.168 25.9022 339.024 26.8946 342.894 28.5818C350.834 32.1545 356.391 40.7886 356.391 51.209C356.391 62.8203 349.444 72.3476 338.131 74.3324L358.078 99.3415ZM319.473 62.8203H326.42C333.863 62.8203 338.428 59.3469 338.428 52.3007C338.428 45.9491 333.665 42.3764 326.618 42.3764H319.473V62.8203Z" fill="#FBECE6"/>
<path d="M403.738 100.731C383.294 100.731 364.141 86.043 364.141 64.309C364.141 41.5825 380.515 24.5128 402.845 24.5128C424.281 24.5128 441.649 41.0863 441.649 62.1256C441.649 83.8597 424.778 100.731 403.738 100.731ZM403.143 84.2567C414.754 84.2567 422.892 74.4317 422.892 62.7211C422.892 51.209 414.655 40.987 402.845 40.987C391.134 40.987 382.897 50.812 382.897 62.4234C382.897 74.5309 391.134 84.2567 403.143 84.2567Z" fill="#FBECE6"/>
<path d="M469.693 99.3415H451.73V25.9022H476.541C484.381 25.803 490.236 26.8946 494.107 28.681C502.046 32.353 507.008 40.7886 507.008 50.7128C507.008 64.309 499.466 76.3173 478.426 76.3173H469.693V99.3415ZM469.693 59.8431H477.732C485.274 59.8431 489.045 57.2628 489.045 51.0105C489.045 45.056 485.373 42.3764 477.037 42.3764H469.693V59.8431Z" fill="#FBECE6"/>
<path d="M553.183 100.731C532.739 100.731 513.585 86.043 513.585 64.309C513.585 41.5825 529.96 24.5128 552.29 24.5128C573.726 24.5128 591.094 41.0863 591.094 62.1256C591.094 83.8597 574.222 100.731 553.183 100.731ZM552.588 84.2567C564.199 84.2567 572.337 74.4317 572.337 62.7211C572.337 51.209 564.1 40.987 552.29 40.987C540.579 40.987 532.342 50.812 532.342 62.4234C532.342 74.5309 540.579 84.2567 552.588 84.2567Z" fill="#FBECE6"/>
<path d="M648.514 47.3385H629.955C629.161 42.0787 626.978 40.1931 623.306 40.1931C619.833 40.1931 616.855 42.6742 616.855 45.9491C616.855 50.3158 620.825 52.3006 628.864 55.7741C645.04 62.7211 649.109 68.5764 649.109 78.2029C649.109 92.3945 639.383 100.731 623.505 100.731C607.527 100.731 597.007 92.3945 597.007 76.615V75.0271H615.664C615.764 81.0809 618.741 85.0506 623.405 85.0506C627.276 85.0506 630.452 81.9741 630.452 78.0044C630.452 72.1491 622.314 69.5688 615.664 66.8893C603.656 62.0264 598.198 55.6749 598.198 46.1476C598.198 33.6431 610.305 24.5128 623.802 24.5128C628.665 24.5128 632.933 25.6045 636.803 27.5893C644.643 31.6583 648.414 37.5136 648.514 47.3385Z" fill="#FBECE6"/>
<g clip-path="url(#clip2_56_3)">
<path d="M706.081 74.7327C705.568 74.2194 705.568 73.3866 706.081 72.8733L752.955 26C753.468 25.4867 754.301 25.4867 754.814 26C755.327 26.5133 755.327 27.346 754.814 27.8593L707.941 74.7327C707.427 75.246 706.595 75.246 706.081 74.7327Z" fill="#FBECE6"/>
<path d="M763.59 49.0498H697.303C696.576 49.0498 695.987 49.6384 695.987 50.3645C695.987 51.0905 696.576 51.6791 697.303 51.6791H763.59C764.317 51.6791 764.906 51.0905 764.906 50.3645C764.906 49.6384 764.317 49.0498 763.59 49.0498Z" fill="#FBECE6"/>
<path d="M706.081 26C706.595 25.4867 707.427 25.4867 707.941 26L754.814 72.8733C755.327 73.3866 755.327 74.2194 754.814 74.7327C754.301 75.246 753.468 75.246 752.955 74.7327L706.081 27.8593C705.568 27.346 705.568 26.5133 706.081 26Z" fill="#FBECE6"/>
<path d="M730.447 15.9062C731.174 15.9062 731.762 16.4949 731.762 17.2218V83.5107C731.762 84.2376 731.174 84.8263 730.447 84.8263C729.72 84.8263 729.131 84.2376 729.131 83.5107V17.2218C729.131 16.4949 729.72 15.9062 730.447 15.9062Z" fill="#FBECE6"/>
<path d="M754.814 26C755.327 26.5133 755.327 27.346 754.814 27.8593L707.941 74.7327C707.427 75.246 706.595 75.246 706.081 74.7327C705.568 74.2194 705.568 73.3866 706.081 72.8733L752.955 26C753.468 25.4867 754.301 25.4867 754.814 26Z" fill="#FBECE6"/>
<path d="M763.59 49.0498H697.303C696.576 49.0498 695.987 49.6384 695.987 50.3645C695.987 51.0905 696.576 51.6791 697.303 51.6791H763.59C764.317 51.6791 764.906 51.0905 764.906 50.3645C764.906 49.6384 764.317 49.0498 763.59 49.0498Z" fill="#FBECE6"/>
<path d="M754.814 74.7327C754.301 75.246 753.468 75.246 752.955 74.7327L706.081 27.8593C705.568 27.346 705.568 26.5133 706.081 26C706.595 25.4867 707.427 25.4867 707.941 26L754.814 72.8733C755.327 73.3866 755.327 74.2194 754.814 74.7327Z" fill="#FBECE6"/>
<path d="M730.447 84.8245C729.72 84.8245 729.131 84.2358 729.131 83.5089V17.2218C729.131 16.4949 729.72 15.9062 730.447 15.9062C731.174 15.9062 731.762 16.4949 731.762 17.2218V83.5107C731.762 84.2376 731.174 84.8263 730.447 84.8263V84.8245Z" fill="#FBECE6"/>
</g>
<g clip-path="url(#clip3_56_3)">
<path d="M718.094 82.5362C717.417 82.276 717.078 81.5153 717.338 80.8376L741.094 18.9515C741.354 18.2738 742.115 17.9351 742.792 18.1953C743.47 18.4554 743.809 19.2162 743.549 19.8939L719.793 81.7799C719.533 82.4576 718.772 82.7963 718.094 82.5362Z" fill="#FBECE6"/>
<path d="M760.185 35.6827L699.629 62.6441C698.965 62.9396 698.667 63.7169 698.962 64.3802C699.257 65.0435 700.035 65.3416 700.698 65.0461L761.255 38.0847C761.919 37.7892 762.217 37.0119 761.922 36.3486C761.627 35.6853 760.849 35.3872 760.185 35.6827Z" fill="#FBECE6"/>
<path d="M698.273 38.0166C698.533 37.3389 699.294 37.0002 699.972 37.2604L761.858 61.0162C762.535 61.2763 762.874 62.0371 762.614 62.7148C762.354 63.3925 761.593 63.7312 760.915 63.4711L699.029 39.7152C698.351 39.4551 698.013 38.6943 698.273 38.0166Z" fill="#FBECE6"/>
<path d="M716.426 18.8853C717.09 18.5897 717.868 18.888 718.163 19.5521L745.125 80.11C745.421 80.774 745.123 81.5512 744.459 81.8469C743.795 82.1425 743.017 81.8442 742.722 81.1802L715.76 20.6222C715.464 19.9582 715.762 19.181 716.426 18.8853Z" fill="#FBECE6"/>
<path d="M742.792 18.1953C743.47 18.4554 743.809 19.2162 743.549 19.8939L719.793 81.7799C719.533 82.4576 718.772 82.7963 718.094 82.5362C717.417 82.276 717.078 81.5153 717.338 80.8376L741.094 18.9515C741.354 18.2738 742.115 17.9351 742.792 18.1953Z" fill="#FBECE6"/>
<path d="M760.185 35.6827L699.629 62.6441C698.965 62.9396 698.667 63.7169 698.962 64.3802C699.257 65.0435 700.035 65.3416 700.698 65.0461L761.255 38.0847C761.919 37.7892 762.217 37.0119 761.922 36.3486C761.627 35.6853 760.849 35.3872 760.185 35.6827Z" fill="#FBECE6"/>
<path d="M762.614 62.7148C762.354 63.3925 761.593 63.7312 760.915 63.4711L699.029 39.7152C698.351 39.4551 698.013 38.6943 698.273 38.0166C698.533 37.3389 699.294 37.0002 699.972 37.2604L761.858 61.0162C762.535 61.2763 762.874 62.0371 762.614 62.7148Z" fill="#FBECE6"/>
<path d="M744.458 81.8452C743.794 82.1409 743.017 81.8425 742.721 81.1785L715.76 20.6222C715.464 19.9582 715.762 19.181 716.426 18.8853C717.09 18.5897 717.868 18.888 718.163 19.5521L745.125 80.11C745.421 80.774 745.123 81.5512 744.459 81.8469L744.458 81.8452Z" fill="#FBECE6"/>
</g>
<path d="M885.215 99.3415H864.87L861.297 88.7226H835.792L831.922 99.3415H811.775L841.25 25.9022H856.037L885.215 99.3415ZM856.335 73.8362L848.793 48.8272L848.495 48.7279L840.953 73.8362H856.335ZM856.534 22.3295L832.021 11.6113L837.082 0L861 12.6038H861.099L856.534 22.3295Z" fill="#FBECE6"/>
<path d="M941.327 99.3415H923.364V25.9022H948.175C956.015 25.803 961.87 26.8946 965.74 28.681C973.68 32.353 978.642 40.7886 978.642 50.7128C978.642 64.309 971.099 76.3173 950.06 76.3173H941.327V99.3415ZM941.327 59.8431H949.365C956.908 59.8431 960.679 57.2628 960.679 51.0105C960.679 45.056 957.007 42.3764 948.671 42.3764H941.327V59.8431Z" fill="#FBECE6"/>
<path d="M1043.02 99.3415H1021.59L1004.62 75.6226H1004.42V99.3415H986.456V25.9022H1010.47C1018.11 25.9022 1023.97 26.8946 1027.84 28.5818C1035.78 32.1545 1041.34 40.7886 1041.34 51.209C1041.34 62.8203 1034.39 72.3476 1023.08 74.3324L1043.02 99.3415ZM1004.42 62.8203H1011.37C1018.81 62.8203 1023.37 59.3469 1023.37 52.3007C1023.37 45.9491 1018.61 42.3764 1011.56 42.3764H1004.42V62.8203Z" fill="#FBECE6"/>
<path d="M1088.68 100.731C1068.24 100.731 1049.09 86.043 1049.09 64.309C1049.09 41.5825 1065.46 24.5128 1087.79 24.5128C1109.23 24.5128 1126.59 41.0863 1126.59 62.1256C1126.59 83.8597 1109.72 100.731 1088.68 100.731ZM1088.09 84.2567C1099.7 84.2567 1107.84 74.4317 1107.84 62.7211C1107.84 51.209 1099.6 40.987 1087.79 40.987C1076.08 40.987 1067.84 50.812 1067.84 62.4234C1067.84 74.5309 1076.08 84.2567 1088.09 84.2567Z" fill="#FBECE6"/>
<path d="M1154.64 99.3415H1136.68V25.9022H1161.49C1169.33 25.803 1175.18 26.8946 1179.05 28.681C1186.99 32.353 1191.95 40.7886 1191.95 50.7128C1191.95 64.309 1184.41 76.3173 1163.37 76.3173H1154.64V99.3415ZM1154.64 59.8431H1162.68C1170.22 59.8431 1173.99 57.2628 1173.99 51.0105C1173.99 45.056 1170.32 42.3764 1161.98 42.3764H1154.64V59.8431Z" fill="#FBECE6"/>
<path d="M1238.13 100.731C1217.69 100.731 1198.53 86.043 1198.53 64.309C1198.53 41.5825 1214.91 24.5128 1237.24 24.5128C1258.67 24.5128 1276.04 41.0863 1276.04 62.1256C1276.04 83.8597 1259.17 100.731 1238.13 100.731ZM1237.53 84.2567C1249.15 84.2567 1257.28 74.4317 1257.28 62.7211C1257.28 51.209 1249.05 40.987 1237.24 40.987C1225.53 40.987 1217.29 50.812 1217.29 62.4234C1217.29 74.5309 1225.53 84.2567 1237.53 84.2567Z" fill="#FBECE6"/>
<path d="M1333.46 47.3385H1314.9C1314.11 42.0787 1311.92 40.1931 1308.25 40.1931C1304.78 40.1931 1301.8 42.6742 1301.8 45.9491C1301.8 50.3158 1305.77 52.3006 1313.81 55.7741C1329.99 62.7211 1334.06 68.5764 1334.06 78.2029C1334.06 92.3945 1324.33 100.731 1308.45 100.731C1292.47 100.731 1281.95 92.3945 1281.95 76.615V75.0271H1300.61C1300.71 81.0809 1303.69 85.0506 1308.35 85.0506C1312.22 85.0506 1315.4 81.9741 1315.4 78.0044C1315.4 72.1491 1307.26 69.5688 1300.61 66.8893C1288.6 62.0264 1283.14 55.6749 1283.14 46.1476C1283.14 33.6431 1295.25 24.5128 1308.75 24.5128C1313.61 24.5128 1317.88 25.6045 1321.75 27.5893C1329.59 31.6583 1333.36 37.5136 1333.46 47.3385Z" fill="#FBECE6"/>
<g clip-path="url(#clip4_56_3)">
<path d="M1391.03 74.7327C1390.51 74.2194 1390.51 73.3866 1391.03 72.8733L1437.9 26C1438.41 25.4867 1439.25 25.4867 1439.76 26C1440.27 26.5133 1440.27 27.346 1439.76 27.8593L1392.89 74.7327C1392.37 75.246 1391.54 75.246 1391.03 74.7327Z" fill="#FBECE6"/>
<path d="M1448.54 49.0498H1382.25C1381.52 49.0498 1380.93 49.6384 1380.93 50.3645C1380.93 51.0905 1381.52 51.6791 1382.25 51.6791H1448.54C1449.26 51.6791 1449.85 51.0905 1449.85 50.3645C1449.85 49.6384 1449.26 49.0498 1448.54 49.0498Z" fill="#FBECE6"/>
<path d="M1391.03 26C1391.54 25.4867 1392.37 25.4867 1392.89 26L1439.76 72.8733C1440.27 73.3866 1440.27 74.2194 1439.76 74.7327C1439.25 75.246 1438.41 75.246 1437.9 74.7327L1391.03 27.8593C1390.51 27.346 1390.51 26.5133 1391.03 26Z" fill="#FBECE6"/>
<path d="M1415.39 15.9062C1416.12 15.9062 1416.71 16.4949 1416.71 17.2218V83.5107C1416.71 84.2376 1416.12 84.8263 1415.39 84.8263C1414.67 84.8263 1414.08 84.2376 1414.08 83.5107V17.2218C1414.08 16.4949 1414.67 15.9062 1415.39 15.9062Z" fill="#FBECE6"/>
<path d="M1439.76 26C1440.27 26.5133 1440.27 27.346 1439.76 27.8593L1392.89 74.7327C1392.37 75.246 1391.54 75.246 1391.03 74.7327C1390.51 74.2194 1390.51 73.3866 1391.03 72.8733L1437.9 26C1438.41 25.4867 1439.25 25.4867 1439.76 26Z" fill="#FBECE6"/>
<path d="M1448.54 49.0498H1382.25C1381.52 49.0498 1380.93 49.6384 1380.93 50.3645C1380.93 51.0905 1381.52 51.6791 1382.25 51.6791H1448.54C1449.26 51.6791 1449.85 51.0905 1449.85 50.3645C1449.85 49.6384 1449.26 49.0498 1448.54 49.0498Z" fill="#FBECE6"/>
<path d="M1439.76 74.7327C1439.25 75.246 1438.41 75.246 1437.9 74.7327L1391.03 27.8593C1390.51 27.346 1390.51 26.5133 1391.03 26C1391.54 25.4867 1392.37 25.4867 1392.89 26L1439.76 72.8733C1440.27 73.3866 1440.27 74.2194 1439.76 74.7327Z" fill="#FBECE6"/>
<path d="M1415.39 84.8245C1414.67 84.8245 1414.08 84.2358 1414.08 83.5089V17.2218C1414.08 16.4949 1414.67 15.9062 1415.39 15.9062C1416.12 15.9062 1416.71 16.4949 1416.71 17.2218V83.5107C1416.71 84.2376 1416.12 84.8263 1415.39 84.8263V84.8245Z" fill="#FBECE6"/>
</g>
<g clip-path="url(#clip5_56_3)">
<path d="M1403.04 82.5362C1402.36 82.276 1402.03 81.5153 1402.29 80.8376L1426.04 18.9515C1426.3 18.2738 1427.06 17.9351 1427.74 18.1953C1428.42 18.4554 1428.76 19.2162 1428.5 19.8939L1404.74 81.7799C1404.48 82.4576 1403.72 82.7963 1403.04 82.5362Z" fill="#F3E4E4"/>
<path d="M1445.13 35.6827L1384.58 62.6441C1383.91 62.9396 1383.61 63.7169 1383.91 64.3802C1384.2 65.0435 1384.98 65.3416 1385.65 65.0461L1446.2 38.0847C1446.87 37.7892 1447.16 37.0119 1446.87 36.3486C1446.57 35.6853 1445.8 35.3872 1445.13 35.6827Z" fill="#F3E4E4"/>
<path d="M1383.22 38.0166C1383.48 37.3389 1384.24 37.0002 1384.92 37.2604L1446.8 61.0162C1447.48 61.2763 1447.82 62.0371 1447.56 62.7148C1447.3 63.3925 1446.54 63.7312 1445.86 63.4711L1383.98 39.7152C1383.3 39.4551 1382.96 38.6943 1383.22 38.0166Z" fill="#F3E4E4"/>
<path d="M1401.37 18.8853C1402.04 18.5897 1402.81 18.888 1403.11 19.5521L1430.07 80.11C1430.37 80.774 1430.07 81.5512 1429.41 81.8469C1428.74 82.1425 1427.96 81.8442 1427.67 81.1802L1400.71 20.6222C1400.41 19.9582 1400.71 19.181 1401.37 18.8853Z" fill="#F3E4E4"/>
<path d="M1427.74 18.1953C1428.42 18.4554 1428.76 19.2162 1428.5 19.8939L1404.74 81.7799C1404.48 82.4576 1403.72 82.7963 1403.04 82.5362C1402.36 82.276 1402.03 81.5153 1402.29 80.8376L1426.04 18.9515C1426.3 18.2738 1427.06 17.9351 1427.74 18.1953Z" fill="#F3E4E4"/>
<path d="M1445.13 35.6827L1384.58 62.6441C1383.91 62.9396 1383.61 63.7169 1383.91 64.3802C1384.2 65.0435 1384.98 65.3416 1385.65 65.0461L1446.2 38.0847C1446.87 37.7892 1447.16 37.0119 1446.87 36.3486C1446.57 35.6853 1445.8 35.3872 1445.13 35.6827Z" fill="#F3E4E4"/>
<path d="M1447.56 62.7148C1447.3 63.3925 1446.54 63.7312 1445.86 63.4711L1383.98 39.7152C1383.3 39.4551 1382.96 38.6943 1383.22 38.0166C1383.48 37.3389 1384.24 37.0002 1384.92 37.2604L1446.8 61.0162C1447.48 61.2763 1447.82 62.0371 1447.56 62.7148Z" fill="#F3E4E4"/>
<path d="M1429.41 81.8452C1428.74 82.1409 1427.96 81.8425 1427.67 81.1785L1400.71 20.6222C1400.41 19.9582 1400.71 19.181 1401.37 18.8853C1402.04 18.5897 1402.81 18.888 1403.11 19.5521L1430.07 80.11C1430.37 80.774 1430.07 81.5512 1429.41 81.8469L1429.41 81.8452Z" fill="#F3E4E4"/>
</g>
<path d="M1570.16 99.3415H1549.82L1546.24 88.7226H1520.74L1516.87 99.3415H1496.72L1526.2 25.9022H1540.98L1570.16 99.3415ZM1541.28 73.8362L1533.74 48.8272L1533.44 48.7279L1525.9 73.8362H1541.28ZM1541.48 22.3295L1516.97 11.6113L1522.03 0L1545.95 12.6038H1546.05L1541.48 22.3295Z" fill="#FBECE6"/>
<path d="M1626.27 99.3415H1608.31V25.9022H1633.12C1640.96 25.803 1646.82 26.8946 1650.69 28.681C1658.63 32.353 1663.59 40.7886 1663.59 50.7128C1663.59 64.309 1656.05 76.3173 1635.01 76.3173H1626.27V99.3415ZM1626.27 59.8431H1634.31C1641.85 59.8431 1645.63 57.2628 1645.63 51.0105C1645.63 45.056 1641.95 42.3764 1633.62 42.3764H1626.27V59.8431Z" fill="#FBECE6"/>
<path d="M1727.97 99.3415H1706.53L1689.56 75.6226H1689.37V99.3415H1671.4V25.9022H1695.42C1703.06 25.9022 1708.92 26.8946 1712.79 28.5818C1720.73 32.1545 1726.28 40.7886 1726.28 51.209C1726.28 62.8203 1719.34 72.3476 1708.02 74.3324L1727.97 99.3415ZM1689.37 62.8203H1696.31C1703.76 62.8203 1708.32 59.3469 1708.32 52.3007C1708.32 45.9491 1703.56 42.3764 1696.51 42.3764H1689.37V62.8203Z" fill="#FBECE6"/>
<path d="M1773.63 100.731C1753.19 100.731 1734.03 86.043 1734.03 64.309C1734.03 41.5825 1750.41 24.5128 1772.74 24.5128C1794.17 24.5128 1811.54 41.0863 1811.54 62.1256C1811.54 83.8597 1794.67 100.731 1773.63 100.731ZM1773.04 84.2567C1784.65 84.2567 1792.78 74.4317 1792.78 62.7211C1792.78 51.209 1784.55 40.987 1772.74 40.987C1761.03 40.987 1752.79 50.812 1752.79 62.4234C1752.79 74.5309 1761.03 84.2567 1773.04 84.2567Z" fill="#FBECE6"/>
<path d="M1839.59 99.3415H1821.62V25.9022H1846.43C1854.27 25.803 1860.13 26.8946 1864 28.681C1871.94 32.353 1876.9 40.7886 1876.9 50.7128C1876.9 64.309 1869.36 76.3173 1848.32 76.3173H1839.59V99.3415ZM1839.59 59.8431H1847.62C1855.17 59.8431 1858.94 57.2628 1858.94 51.0105C1858.94 45.056 1855.27 42.3764 1846.93 42.3764H1839.59V59.8431Z" fill="#FBECE6"/>
<path d="M1923.08 100.731C1902.63 100.731 1883.48 86.043 1883.48 64.309C1883.48 41.5825 1899.85 24.5128 1922.18 24.5128C1943.62 24.5128 1960.99 41.0863 1960.99 62.1256C1960.99 83.8597 1944.11 100.731 1923.08 100.731ZM1922.48 84.2567C1934.09 84.2567 1942.23 74.4317 1942.23 62.7211C1942.23 51.209 1933.99 40.987 1922.18 40.987C1910.47 40.987 1902.23 50.812 1902.23 62.4234C1902.23 74.5309 1910.47 84.2567 1922.48 84.2567Z" fill="#FBECE6"/>
<path d="M2018.41 47.3385H1999.85C1999.05 42.0787 1996.87 40.1931 1993.2 40.1931C1989.73 40.1931 1986.75 42.6742 1986.75 45.9491C1986.75 50.3158 1990.72 52.3006 1998.76 55.7741C2014.93 62.7211 2019 68.5764 2019 78.2029C2019 92.3945 2009.28 100.731 1993.4 100.731C1977.42 100.731 1966.9 92.3945 1966.9 76.615V75.0271H1985.56C1985.66 81.0809 1988.63 85.0506 1993.3 85.0506C1997.17 85.0506 2000.34 81.9741 2000.34 78.0044C2000.34 72.1491 1992.21 69.5688 1985.56 66.8893C1973.55 62.0264 1968.09 55.6749 1968.09 46.1476C1968.09 33.6431 1980.2 24.5128 1993.69 24.5128C1998.56 24.5128 2002.83 25.6045 2006.7 27.5893C2014.54 31.6583 2018.31 37.5136 2018.41 47.3385Z" fill="#FBECE6"/>
</g>
<defs>
<clipPath id="clip0_56_3">
<rect width="68.9182" height="68.9182" fill="white" transform="translate(11.0405 15.9062)"/>
</clipPath>
<clipPath id="clip1_56_3">
<rect width="68.9182" height="68.9182" fill="white" transform="translate(0 32.9011) rotate(-24)"/>
</clipPath>
<clipPath id="clip2_56_3">
<rect width="68.9182" height="68.9182" fill="white" transform="translate(695.987 15.9062)"/>
</clipPath>
<clipPath id="clip3_56_3">
<rect width="68.9182" height="68.9182" fill="white" transform="translate(684.946 32.9011) rotate(-24)"/>
</clipPath>
<clipPath id="clip4_56_3">
<rect width="68.9182" height="68.9182" fill="white" transform="translate(1380.93 15.9062)"/>
</clipPath>
<clipPath id="clip5_56_3">
<rect width="68.9182" height="68.9182" fill="white" transform="translate(1369.89 32.9011) rotate(-24)"/>
</clipPath>
</defs>
</svg>
